<?xml version="1.0" encoding="UTF-8"?><svg id="a" xmlns="http://www.w3.org/2000/svg" xmlns:xlink="http://www.w3.org/1999/xlink" viewBox="0 0 256 256"><defs><style>.h,.i{fill:#4f4f4f;}.j{fill:#fff;stroke:#4b7eab;stroke-width:2px;}.j,.k,.l{stroke-miterlimit:10;}.m{fill:#305d84;}.k{stroke:#fb912e;stroke-width:6px;}.k,.n,.l{fill:none;}.o{fill:#6496bc;}.p{fill:url(#c);}.q{fill:url(#d);}.i{opacity:.5;}.r{fill:#3e86b5;}.s{fill:#7db2d7;}.t{fill:#103457;}.u{fill:url(#e);}.v{fill:url(#f);}.w{fill:#c6ecfc;}.x{clip-path:url(#g);}.y{fill:#9dcce9;}.l{stroke:#ffbc00;stroke-width:16px;}.z{fill:#4d7aa0;}.aa{fill:url(#b);}</style><linearGradient id="b" x1="96.13" y1="168.84" x2="57.57" y2="186.05" gradientUnits="userSpaceOnUse"><stop offset="0" stop-color="#103457"/><stop offset="1" stop-color="#305d84"/></linearGradient><linearGradient id="c" x1="182.51" y1="52.07" x2="76.17" y2="121.09" gradientUnits="userSpaceOnUse"><stop offset=".16" stop-color="#7db2d7"/><stop offset=".37" stop-color="#c6ecfc"/><stop offset=".44" stop-color="#c6ecfc"/><stop offset=".66" stop-color="#c6ecfc"/><stop offset="1" stop-color="#9dcce9"/></linearGradient><linearGradient id="d" x1="207.02" y1="78.55" x2="214.23" y2="108.35" gradientUnits="userSpaceOnUse"><stop offset="0" stop-color="#6496bc"/><stop offset="1" stop-color="#4d7aa0"/></linearGradient><linearGradient id="e" x1="159.59" y1="90.22" x2="210.46" y2="136.21" gradientUnits="userSpaceOnUse"><stop offset="0" stop-color="#6496bc"/><stop offset="1" stop-color="#4d7aa0"/></linearGradient><linearGradient id="f" x1="112.72" y1="107.57" x2="102.41" y2="186.67" gradientUnits="userSpaceOnUse"><stop offset=".13" stop-color="#7db2d7"/><stop offset="1" stop-color="#305d84"/></linearGradient><clipPath id="g"><path class="n" d="M265.94-12.92v284.48H-26.02V120.15H25.39c0,20.51,5.81,39.67,15.89,55.91L214.59,53.84c-16.76-20.98-41.33-35.45-69.31-39.05V-12.92h120.66Z"/></clipPath></defs><ellipse class="i" cx="131.61" cy="231.46" rx="66.97" ry="9.07"/><ellipse class="h" cx="131.03" cy="228.45" rx="38.73" ry="6.05"/><circle class="r" cx="131.61" cy="120.15" r="106.23"/><path class="w" d="M114.39,17.76v5.38c-.09.01-.18-.01-.27,0-16.07,2.54-33.92,9.91-46.39,20.44-5.14,4.34-7.52,7.16-7.67,14.39,14.85-14.33,33.81-25.56,54.33-28.78.07.83-.1,1.75,0,2.56-2.12-1.03-.92.25-1.75.54-2.62.92-6.53,1.41-9.14,2.42-11.41,4.4-23.18,12.48-32.54,20.71-1.42,1.25-11.41,10.67-11.7,11.43-.44,1.18.33,10.51.54,12.37.08.72.37,2.66.54,3.77.37,2.42,1.01,4.83,1.34,7.26l.54.27,2.56-2.29.94.67c-2.2,1.91-5.45,3.57-2.15,6.32-.81.83-.23,3.56.81,4.3-.49,1.01.06,1.33,0,2.02,0,.06-1.02-1.03-1.08.4,0-.03-.46.1-.54-.13-.36-1.15-.15-3.44-.94-4.71-.52-.29-5.03,2.87-5.24,3.23l-.67-3.23-15.87,14.79-.67-.54c.03-.07-.02-.18,0-.27l16.94-15.73,1.34-12.51c.42-.46.65-1.04,1.34-1.21-1.12-7.09-.66-14.24-.81-21.38,1.23-2.33,1.29-6.76,2.02-9.41-3.77,3.98-7.09,8.33-10.09,12.91-.64-.38-2.04-1.81-2.82-1.61-.41.1-4.19,6.13-4.71,6.99-5.55,9.32-8.82,19.81-11.56,30.26-.63,2.39-1.09,7.24-1.88,9.14-.31.75-.58.75-1.34.67,4.3-40.57,29.97-73.35,67.78-87.95.58,2.52,5.06-.23,7.13-.54,1.88-.28,8.73-.27,9.95-.81.66-.29.33-1.58.4-2.15.44-.03.9.02,1.34,0Z"/><path class="y" d="M58.18,60.26c-.99,1.87-4.73,5.29-6.19,7.4-4.26,6.15-7.81,12.29-10.22,19.1-.37,1.05-2.8,7.91-2.69,8.34.02.07,1.05.48,1.08.81.07.78-.73,4.76-.4,4.98,2.65-2.97,5.16-6.15,7.93-9.01,3-3.08,7.36-6.17,9.95-9.01l-1.34,12.51-16.94,15.73c.33-1.47-.29-7.27-.4-9.14-1.33.03-9.91,17.08-10.35,19.63-.29,1.67.14,1.31.27,2.15.01.09-.02.18,0,.27l-1.61.81c-.28-6.17-.04-10.14.54-15.6.76.08,1.03.07,1.34-.67.8-1.9,1.25-6.76,1.88-9.14,2.75-10.44,6.01-20.93,11.56-30.26.47.24,3.17,1.91,3.36,1.88.41-.07,3.48-6.21,4.17-7.26,3-4.58,6.31-8.93,10.09-12.91-.72,2.66-.78,7.09-2.02,9.41Z"/><path class="s" d="M28.87,124c.19.95.18,2.67,1.08,3.5-.83-.12-.57,1.32-.54,1.75.49,6.22,1.56,20.82,4.57,26.09.62,1.09,6.09,4.63,7.53,4.98.61.94.98.83,1.61,1.34-.09.79-1.85-.17-2.02-.27-1.74-.99-3.64-2.67-5.38-3.77-.57-.07-.43.57-.4.94.32,4.01,11.29,21.16,14.25,25.01,2.69,3.51,16.1,18.31,19.63,18.96-.16.52.23.48.27.54.32.41,3.79,3.39,4.03,3.5l-.54,1.08c-17.08-11.69-39.62-37.21-42.23-58.36-.05-.39.28-1.79-.54-2.42-.01-.09.01-.18,0-.27-.1-.65-.26-.51-.27-.54-.07-.4.23-1.19-.27-1.34-.09-.56-.24-.87-.27-1.61,0-.26.1-.55-.27-.54-.02-.35.03-.72,0-1.08-.02-.21-.04-.3-.27-.27-.05-.44.03-.9,0-1.34-.02-.21-.04-.3-.27-.27-.04-.35,0-.72,0-1.08,0-.31.15-.79-.27-.81-.1-4.13-.88-8.56-1.08-12.91l1.61-.81Z"/><path class="y" d="M113.05,17.76c-.07.57.26,1.86-.4,2.15-1.22.54-8.07.53-9.95.81-2.07.31-6.55,3.06-7.13.54,1.99-.77,3.84-1.69,6.19-2.15,3.1-.61,7.95-1.15,11.3-1.34Z"/><path class="z" d="M77.01,208.99c.25,1.28,3.94,3.06,5.65,4.03-3.45-.93-6.75-3.37-9.68-5.38l.54-1.08c1.22.52,8.56.05,9.95-.81,1.43.82,2.93,1.49,4.44,2.15l-.27.54-10.76-.27-.4.4c.2.24.46-.01.54.4Z"/><path class="w" d="M57.65,82.85c-2.59,2.84-6.96,5.93-9.95,9.01-2.78,2.86-5.28,6.04-7.93,9.01-.32-.21.48-4.2.4-4.98-.03-.32-1.06-.74-1.08-.81-.11-.42,2.32-7.28,2.69-8.34,2.41-6.8,5.96-12.95,10.22-19.1,1.46-2.11,5.2-5.53,6.19-7.4.15,7.14-.31,14.29.81,21.38-.69.17-.93.75-1.34,1.21Z"/><path class="s" d="M56.57,100.33c-.2.34-.2.46-.27.81-1.96.93-9.29,7.64-9.68,9.28-.12.51-.21,10.01,0,10.49.5,1.13,4.17-.42,4.84.94-3.78,0-7.53-.19-11.3-.27-.24-2.95-.85-5.9-.94-8.88l-9.01,8.74c.26.42,8.71.11,9.95.13.04.53-.03,1.08,0,1.61-1.34-.03-2.66-.25-4.03-.27-1.86-.03-6.22-.59-7.26.81-.13-.84-.56-.48-.27-2.15.24.24,1.09.08,1.21,0,.58-.39,9.3-9.57,9.55-10.22l.67.54,15.87-14.79.67,3.23Z"/><path class="y" d="M63.29,101.95c.04.14-.04.39,0,.54-3.28,3.38-3.44,9.66-5.11,13.85-.19.47-.33,1.21-.94,1.21-.07-4.55-1.84-12.12-.94-16.41.07-.35.07-.47.27-.81.21-.36,4.72-3.51,5.24-3.23.79,1.27.58,3.56.94,4.71.07.23.53.11.54.13Z"/><path class="o" d="M39.36,111.09c-.02.09.03.2,0,.27-.25.65-8.96,9.83-9.55,10.22-.12.08-.97.24-1.21,0,.44-2.55,9.02-19.6,10.35-19.63.11,1.88.73,7.67.4,9.14Z"/><path class="y" d="M50.11,63.75c-.68,1.05-3.76,7.19-4.17,7.26-.19.03-2.89-1.65-3.36-1.88.52-.87,4.3-6.89,4.71-6.99.78-.2,2.18,1.24,2.82,1.61Z"/><path class="y" d="M64.37,99.53c-1.04-.74-1.62-3.47-.81-4.3.41-.41,4.45-2.6,5.38-2.56.35.55-4.14,5.98-4.57,6.86Z"/><path class="o" d="M36.13,122.92c.15,1.09-.25,1.81-.81,2.69-1.19,1.88-3.41,3.7-5.38,1.88-.9-.83-.88-2.55-1.08-3.5-.02-.09.01-.18,0-.27,1.04-1.39,5.4-.84,7.26-.81Z"/><path class="o" d="M43.12,161.65c4.59,3.75,15.26,9.13,20.84,11.83,9.87,4.78,20.24,8.74,30.93,11.3l-.13,1.34c-18.71-4.59-35.82-13.55-52.04-23.67,7.16,16.26,19.84,29.81,34.56,39.54-2.43.21-5.41,1.03-8.07.54-3.53-.65-16.94-15.45-19.63-18.96-2.96-3.85-13.94-21-14.25-25.01-.03-.37-.17-1.01.4-.94,1.74,1.09,3.64,2.77,5.38,3.77.17.1,1.92,1.06,2.02.27Z"/><path class="o" d="M41.51,160.31c-1.44-.35-6.91-3.88-7.53-4.98-3.01-5.27-4.08-19.87-4.57-26.09-.03-.43-.29-1.87.54-1.75,1.97,1.81,4.19,0,5.38-1.88-1.43,8.45.45,17.8,2.96,25.95.54,1.75,2.4,7.48,3.23,8.74Z"/><path class="o" d="M83.46,205.76c-1.39.86-8.73,1.32-9.95.81-.25-.1-3.71-3.08-4.03-3.5,3.1.3,6.1-.27,9.14-.54,1.28,1.32,3.25,2.32,4.84,3.23Z"/><path class="o" d="M108.48,194.2c-9.98,4.45-18.91,7.36-29.85,8.34-3.05.27-6.05.84-9.14.54-.04-.05-.43-.02-.27-.54,2.66.49,5.64-.33,8.07-.54,11.14-.98,20.76-3.77,30.93-8.34l.27.54Z"/><path class="s" d="M56.3,101.14c-.9,4.29.87,11.86.94,16.41.61,0,.76-.74.94-1.21,1.67-4.19,1.83-10.47,5.11-13.85,1.98,6.44,4.05,12.83,6.19,19.23-5.1.26-10.23.11-15.33.13-.89,0-1.79,0-2.69,0-.67-1.36-4.34.19-4.84-.94-.21-.48-.12-9.98,0-10.49.39-1.64,7.73-8.35,9.68-9.28Z"/><path class="y" d="M76.74,138.52l1.08-.81c2.45,5.32,5.13,10.67,8.07,15.73,4.03,6.95,11.22,15.08,14.52,21.52.25.48.74.83.13,1.21-9.69-11.27-17.32-24.29-23.8-37.65Z"/><path class="y" d="M51.46,121.85c.9,0,1.8,0,2.69,0v1.61c-.51-.02-1.08.02-1.61,0-.27,0-.54,0-.81,0-3.77-.12-7.52-.18-11.3-.27-.09,0-.18,0-.27,0-.03-.53.04-1.08,0-1.61,3.77.08,7.51.27,11.3.27Z"/><path class="z" d="M40.16,121.58c-1.24-.03-9.69.29-9.95-.13l9.01-8.74c.09,2.98.7,5.92.94,8.88Z"/><path class="aa" d="M94.76,186.13c2.2.54,13.72,2.29,14.39,2.69.57.34,1.01,2.83,2.02,3.23-.99.48-1.93,1.15-2.96,1.61-10.17,4.57-19.79,7.36-30.93,8.34-14.72-9.73-27.4-23.28-34.56-39.54,16.23,10.12,33.34,19.08,52.04,23.67Z"/><path class="o" d="M51.73,123.46c-3.07,4.57-5.12,9.4-5.65,14.93-.27,2.84.64,6.48-.54,9.01-1.79-8.02-4.79-15.88-5.11-24.21,3.78.09,7.52.15,11.3.27Z"/><path class="o" d="M52.54,123.46c-3.88,10.06-6.58,20.13-5.65,31.06-.94-1.5-.4-3.4-.54-5.11-.27-.56-.68-1.45-.81-2.02,1.18-2.53.27-6.17.54-9.01.52-5.52,2.58-10.36,5.65-14.93.27,0,.54,0,.81,0Z"/><path class="z" d="M160.39,220.82c-22.96,6.58-44.91,5.54-67.24-2.96,2.12-.46,4.31-.53,6.45-.81.33.28.54.71.94.81,2.6.61,6.31.79,8.88,1.61.3.1-.03.95.27,1.08.61.25,5.11.55,6.05.54,3.31.19,6.64.4,9.95.54,4.15.17,7.66.29,11.83,0,30.18-2.12,62.52-18.48,77.46-45.45,1.26.31,3.11-3.51,3.77-4.71,5.12-9.37,9.13-21.6,10.76-32.14l4.57,1.21c-7.71,39.27-35.3,69.28-73.69,80.28Z"/><path class="s" d="M217.94,59.99c6.24,7.56,12.9,23.42,15.33,32.95,13.7,53.79-14.69,109.09-67.37,126.81-1.47.49-3.98,1.37-5.51,1.08,38.39-11,65.98-41.01,73.69-80.28l-4.57-1.21c.34-2.21.6-4.5.81-6.72.74-8.07.7-15.89,0-23.94-.42-4.78-.92-10.09-2.42-14.66-.19-.59-.29-1.29-1.08-.67-2.51-13.56-9.73-25.14-16.14-37.12.68.16,2.08,1.06,2.56.81.28-.15.06-.73.13-.81,1.05-1.14,2.67,2.43,3.5,3.36.51.58,1.04.36,1.08.4Z"/><path class="y" d="M217.94,59.99s-.56.17-1.08-.4c-.83-.93-2.44-4.5-3.5-3.36-1.35-1.51-9.9-3.81-11.43-3.5-.39.08-.26,1.07-.4,1.34-1.61-.3-3.22-.56-4.84-.81-3.39-.51-6.81-.72-10.22-1.08-.26-.03-.28-.24-.54-.27l-.27-1.61c2.91.26,5.73.65,8.61,1.08.96.14,6.42,1.34,6.72.94-10.95-16.43-29.18-26.17-47.87-31.33-.94-.42-1.74-.71-2.69-1.08-.84-1.05-1.83-.89-2.96-1.08-.26-.09-.52-.18-.81-.27-.25-.08-.52-.19-.81-.27-4.59-1.32-10.59-2.68-15.33-2.96,34.63-2.05,68.04,16.64,87.41,44.65Z"/><path class="t" d="M173.28,177.15c-1,1.15-2.33,2.88-3.37,4l2.85,1.21c-6,5.03-11.41,10.66-17.75,15.33-9.9,7.28-21.01,13.45-32.82,16.95-.88-1.03-2.89,0-4.16,0-.16,0-1.85-.54-2.02-.54-3.05.23-7,1.37-10.22,1.88-2.07.33-4.09.81-6.19,1.08-2.14.28-4.33.34-6.45.8-1.87-.71-8.69-4.01-10.49-4.84,5.53,2.01,14.41.01,20.04-1.21,15.94-3.45,31.33-9.6,40.62-16.18,6.48-4.59,17.57-14.02,22.85-19.96,12.52-14.08,31.95-45.15,32.68-71.3,1.45,25.32-8.15,50.71-23.94,70.19-.76.94-.85,1.69-1.63,2.59Z"/><path class="p" d="M114.39,31.75c.46,3.79.36,7.75.54,11.56.22,4.76.57,9.63.27,14.39l.67.94c.92.29,4.03-1.6,4.98-1.88,17.34-5.21,46.61-7.19,64.82-6.45,12.29,18.89,16.68,39.82,12.87,62.13-1.51-.21-14.43,1.63-15.83,1.88-20.93,3.85-42.12,6.71-63.34,8.61-.06,13.92-.35,27.8-1.21,41.69l-1.34.54c.64-13.94,1.19-28.01.4-41.96-14.95,1.08-29.93,1.28-44.92.54-.76.48,4.92,12.7,5.51,13.99l-1.08.81c-2.36-4.86-4.22-9.94-6.59-14.79-5.34.07-10.67-.1-16-.27v-1.61c5.1-.02,10.23.13,15.33-.13-2.13-6.4-4.2-12.79-6.19-19.23-.04-.14.04-.4,0-.54.05-1.44,1.07-.35,1.08-.4.06-.69-.49-1,0-2.02.43-.88,4.93-6.31,4.57-6.86-.93-.04-4.97,2.14-5.38,2.56-3.3-2.75-.05-4.41,2.15-6.32l-.94-.67-2.56,2.29-.54-.27c-.34-2.43-.98-4.84-1.34-7.26-.17-1.1-.46-3.05-.54-3.77-.21-1.86-.98-11.2-.54-12.37.29-.77,10.28-10.18,11.7-11.43,9.36-8.22,21.13-16.31,32.54-20.71,2.62-1.01,6.52-1.5,9.14-2.42.83-.29-.37-1.56,1.75-.54Z"/><path class="y" d="M114.13,23.14l.4,5.65,16.14-2.96,29.72-.92c7.1,3.7,12.79,8.96,17.97,15.11-9.76-1.01-32.91-1.91-42.58.07-.52.11-1.47.26-1.21,1.08-6.47.07-13.43.56-19.63,2.15-.17-3.82-.07-7.78-.54-11.56-.1-.81.07-1.73,0-2.56-20.52,3.22-39.48,14.45-54.33,28.78.15-7.23,2.52-10.05,7.67-14.39,12.48-10.53,30.32-17.9,46.39-20.44Z"/><path class="y" d="M150.84,20.99c-2.4.73-14.53,3.84-16.94,3.5-8.94-1.28-9.57-2.86-19.5-1.34v-5.38c14.42-2.4,29.99-1.12,36.44,3.23Z"/><path class="s" d="M153.12,20.99c1.56.67,5.76,3.14,7.26,3.92l-29.72.92-16.14,2.96-.4-5.65c.09-.01.18.01.27,0,9.92-1.52,14.52-2,23.8-2,2.44,0,10.76-.15,14.93-.15Z"/><path class="t" d="M227.89,138.25c-.51,2.36-.63,5.38-1.08,7.4-.05.24-1.32,1.68-1.34,2.15-.01.28.83-.15.81.54,0,.28-.95.46-1.08.81-3.52,9.61-5.05,17.68-10.22,27.03-14.93,26.98-47.28,43.34-77.46,45.45.24-.69-.5-1-.94-1.08-3.34-.58-8.57.13-12.1-.27l1.21,1.34c-3.32-.14-6.64-.34-9.95-.54,1.7-.03,6.4.26,4.84-2.42,1.15.11,2.34.2,3.5.27,52.13,2.89,91.34-27.51,101.93-78.27.27-1.31.59-2.72.81-4.03.59.67-.14,1.35,1.08,1.61Z"/><path class="m" d="M116.01,214.1c.15-.01,1.87.54,2.02.54,1.28,0,3.28-1.03,4.17,0-3.49,1.04-7.99.65-11.63,1.13-.02.71,9.16,2.82,10.01,2.9,1.56,2.68-3.14,2.39-4.84,2.42-.94.01-5.44-.29-6.05-.54-.3-.12.03-.98-.27-1.08-2.56-.83-6.27-1-8.88-1.61-.4-.09-.61-.52-.94-.81,2.1-.27,4.12-.75,6.19-1.08,3.23-.51,7.18-1.65,10.22-1.88Z"/><path class="m" d="M230.31,132.61c-.2,2.23-.47,4.52-.81,6.72-1.63,10.54-5.64,22.77-10.76,32.14-.66,1.2-2.5,5.02-3.77,4.71,5.17-9.35,6.7-17.42,10.22-27.03.13-.35,1.07-.53,1.08-.81.02-.69-.82-.26-.81-.54.02-.47,1.29-1.91,1.34-2.15.45-2.02.57-5.04,1.08-7.4,0-.03.49-.17.54-.4.36-1.61.44-3.96.54-5.65l1.34.4Z"/><path class="m" d="M137.52,221.63c-4.18.29-7.68.17-11.83,0l-1.21-1.34c3.53.4,8.76-.32,12.1.27.44.08,1.19.38.94,1.08Z"/><path class="q" d="M210.68,56.22c6.41,11.97,13.63,23.56,16.14,37.12.95,5.14,1.58,10.37,1.34,15.6-1.86.52-4.05,1.8-5.92,2.42-1.22.41-2.52.67-3.77,1.08-3.13,1.02-6.27,1.99-9.41,2.96-.86.27-8.92,3.32-8.88,2.29,5.15-2.7,12.06-4.04,18.29-6.32.64-.24,3.89-1.04,4.03-1.48-1.4-20.34-8.45-39.29-20.17-55.81,2.82.54,5.54,1.5,8.34,2.15Z"/><path class="m" d="M230.31,108.67c.7,8.05.74,15.87,0,23.94l-1.34-.4c-.1,1.69-.18,4.04-.54,5.65-.05.23-.53.37-.54.4-1.22-.26-.48-.95-1.08-1.61.93-5.5,1.55-11.51,1.34-17.08l-6.19,10.62c.24-2.56.41-5.23.27-7.8.68-1,4.52-7.03,4.57-7.67.02-.28-.23-.77-.54-.54-.71,1.96-2.38,3.41-3.5,4.98l-.54-7.8c1.86-.62,4.06-1.9,5.92-2.42.56-.16,1.53-.04,2.15-.27Z"/><path class="o" d="M230.31,108.67c-.62.22-1.59.11-2.15.27.23-5.23-.39-10.46-1.34-15.6.79-.62.88.08,1.08.67,1.5,4.57,2,9.88,2.42,14.66Z"/><path class="w" d="M213.37,56.22c-.08.08.14.66-.13.81-.48.25-1.88-.65-2.56-.81-2.8-.65-5.52-1.61-8.34-2.15-.25-.05-.55.05-.81,0,.14-.28.01-1.27.4-1.34,1.53-.31,10.08,1.98,11.43,3.5Z"/><path class="t" d="M171.95,149.55c-4.27,7.6-7.17,13.36-12.91,20.17-5.71,6.77-12.73,13.1-19.9,18.29-5.68,4.11-11.55,7.36-17.62,10.76-.12.06-1.15,1.24-1.88,1.61-.43.22-.43-.59-.54-.54-.29.14.02.67-.27.81-3.97,1.93-8.53,3.22-12.91,4.84-.5.19-1.15.28-.94,1.08-5.2,1.5-11.55,3.18-16.94,3.5-3.63.21-7.54.02-11.03-1.08-.08-.41-.34-.17-.54-.4l.4-.4,3.9-.79,3.32-.61-.63-1.02s-3.56-1.91-4.84-3.23c10.94-.98,19.88-3.89,29.85-8.34,3.08-1.37,6.19-2.66,9.14-4.3-.28,1.86.7,1.79,1.16,3.6,19.99-11.63,39.04-25.63,53.17-43.94Z"/><path class="s" d="M177.6,39.59c2.93,2.71,5.91,7.4,8.07,10.72-18.2-.74-47.47,1.24-64.82,6.45-.09-.63-.95-2.41-.81-2.82.36-1.01,15.55-6.54,17.62-7.13,5.41-1.55,11.08-2.27,16.54-3.63-6.29-1.92-13.1-2.09-19.63-2.02-.26-.82.69-.97,1.21-1.08,9.67-1.98,32.06-1.51,41.82-.5Z"/><path class="z" d="M174.37,144.98c-.8,1.51-1.59,3.09-2.42,4.57-14.13,18.32-32.83,32.01-52.83,43.63-.45-1.81-1.78-1.43-1.5-3.29,22.34-12.41,43.01-32.38,58.9-52.18-.81,2.34-1.53,4.86-2.15,7.26Z"/><path class="t" d="M162.54,169.72c-6.41,7.68-14.15,14.23-22.32,19.9-.97.27-1-.9-1.08-1.61,7.17-5.19,14.19-11.52,19.9-18.29,2.13-2.35,8.17-5.6,3.5,0Z"/><path class="u" d="M196.69,53.27c2.89,5.62,6.8,10.63,9.68,16.27,6.68,13.07,10.39,27.25,12.1,41.82-6.23,2.28-13.13,3.62-18.29,6.32-.05,1.04,8.02-2.02,8.88-2.29l.81,19.1c-4.71,4.22-10,7.67-15.06,11.43.42.62.68.1,1.21-.13,3.31-1.46,9.88-6.21,12.78-8.61.05,2.34-.06,4.71-.54,6.99-10.76,10.49-20.5,22.33-33.35,30.39,15.79-19.48,25.39-44.88,23.94-70.2.23-8.31-.52-16.35-2.15-24.47l14.52,3.9-14.79-5.51c-2.02-9.15-5.63-17.81-9.95-26.09,3.41.35,6.83.56,10.22,1.08Z"/><path class="m" d="M201.54,54.07c.25.05.55-.05.81,0,11.72,16.51,18.77,35.47,20.17,55.81-.14.44-3.39,1.24-4.03,1.48-1.71-14.57-5.42-28.75-12.1-41.82-2.88-5.64-6.79-10.65-9.68-16.27,1.62.25,3.23.51,4.84.81Z"/><path class="o" d="M194.27,51.38c-.67-1.69-2.67-3.8-4.03-5.24-7.07-7.47-13.14-10.52-21.52-15.73-5.28-3.28-9.77-6.82-15.6-9.41,18.69,5.16,36.92,14.91,47.87,31.33-.3.4-5.76-.8-6.72-.94Z"/><path class="s" d="M194.27,51.38c-2.88-.43-5.7-.82-8.61-1.08-.18-.02-.36.01-.54,0-4.27-7.55-10.06-14.07-16.41-19.9,8.38,5.21,14.44,8.26,21.52,15.73,1.36,1.44,3.37,3.56,4.03,5.24Z"/><path class="s" d="M150.43,19.92c-.93-.36-2.02-.77-2.96-1.08.78.07,2.31.05,2.96,1.08Z"/><path class="v" d="M187.01,113.51c-.92,7.15-2.06,14.09-6.32,21.79-9.02,11.76-22.34,22.63-33.62,32.27-10.9,9.31-23.03,18.19-35.91,24.47-1.01-.4-1.45-2.89-2.02-3.23-.67-.4-12.19-2.15-14.39-2.69l-3.86-1.01c-10.69-2.55-18.26-6.9-28.13-11.68-5.59-2.71-15.06-8.03-19.65-11.78-.63-.52-1-.41-1.61-1.34-.83-1.26-2.69-6.99-3.23-8.74-2.5-8.15-4.39-17.51-2.96-25.95.55-.88.96-1.6.81-2.69,1.37.02,2.69.24,4.03.27.09,0,.18,0,.27,0,.32,8.33,3.32,16.19,5.11,24.21.13.57.54,1.46.81,2.02.14,1.71-.41,3.61.54,5.11-.93-10.93,1.77-21,5.65-31.06.53.02,1.11-.02,1.61,0,5.33.17,10.66.34,16,.27,2.37,4.86,4.23,9.93,6.59,14.79,6.48,13.36,14.11,26.39,23.8,37.65.6-.38.11-.73-.13-1.21-3.31-6.43-10.49-14.57-14.52-21.52-2.94-5.07-5.62-10.41-8.07-15.73-.59-1.28-6.27-13.5-5.51-13.99,14.98.74,29.96.54,44.92-.54.79,13.95.24,28.01-.4,41.96-.18,3.84-.61,7.72-.81,11.56-.06,1.19-1.11,7.61.4,6.99.52-.21.84-5.99.94-6.99.4-4.03.56-8.08.81-12.1.86-13.88,1.15-27.77,1.21-41.69,21.22-1.9,46.71-5.56,67.64-9.41Z"/><path class="w" d="M134.57,41.16c6.54-.07,13.34.1,19.63,2.02-5.46,1.36-11.13,2.09-16.54,3.63-2.07.59-17.26,6.12-17.62,7.13-.15.42.72,2.2.81,2.82-.95.28-4.06,2.17-4.98,1.88l-.67-.94c.31-4.75-.05-9.63-.27-14.39,6.21-1.59,13.16-2.08,19.63-2.15Z"/><path class="o" d="M118.16,164.61c-.25,4.02-.41,8.08-.81,12.1h-1.34c.2-3.84.63-7.73.81-11.56l1.34-.54Z"/><path class="z" d="M226.82,136.64c-.22,1.31-.53,2.72-.81,4.03-.55-.58-.73.64-.81.94-2.13,8.16-4.07,14.98-7.53,22.73-2.56-.84-2.64,3.04-3.5,4.44-1.79,2.93-4.42,6.94-6.45,9.68-.65.87-1.45.58-1.61.81-3.64,4.85-6.88,10.21-11.43,14.39s-9.66,6.76-14.39,10.09c-.07.05-.03,1.01-.67,1.48-2.25,1.66-6.38,2.26-8.47,4.3-.6.24-1.31.59-1.88.81-.38-.53-.63-.49-1.21-.27-1.43.54-3.38,1.85-4.98,2.42-1.05.34-2.21.78-3.23,1.08-1.19.3-3.44.3-4.03,1.34-6.23,1.54-14.18,2.83-20.57,3.23-3.11.19-7.34-.45-10.22,0-.77.12-.61.06-.94.81-1.16-.06-2.34-.16-3.5-.27-.85-.08-12.4-2.43-12.37-3.14,3.63-.49,13.39-3.29,16.88-4.33,11.8-3.5,18.02-8.29,27.91-15.57,3.87,1.46,9.86,2.38,13.58.99,10.36-3.88,21.14-14.74,27.43-23.67,3.17-4.49,6.36-9.85,8.61-14.52l11.3-11.83c-1.75,3.74-2.97,8.22-4.84,12.1-1.35,2.81-2.98,5.65-4.57,8.34-7.4,12.52-17.04,22.74-29.05,30.93-3.15,2.15-6.59,4.39-9.95,6.19-5.39,2.88-11.27,4.81-16.68,7.67,6.28-.17,12.49-2.2,18.29-4.44,4.1-1.58,7.78-3.45,11.56-5.65,13.79-7.99,25.33-19.62,32.54-33.89,1.63-3.23,2.6-5.73,3.77-9.14,1.08-3.18,1.74-5.27,2.42-8.61.45.45.71-.08.81-.4,1.72-5.97,2.82-11.97,3.5-18.15.05-.47.22-.78.27-1.34l6.19-10.62c.2,5.57-.42,11.58-1.34,17.08Z"/><path class="y" d="M226.01,140.68c-10.59,50.76-49.8,81.16-101.93,78.27.33-.75.17-.69.94-.81,2.88-.45,7.11.19,10.22,0,6.4-.39,14.35-1.69,20.57-3.23,1.37-.34,2.71-.96,4.03-1.34,1.49-.37,1.9-.6,3.23-1.08,2.33-.75,3.89-1.28,6.19-2.15.57-.22,1.28-.57,1.88-.81,3.78-1.51,9.07-3.22,12.37-5.51.09-.06-.16-.74.13-.94.08-.05.85.48,1.34,0,.23-.23-.53-.48.27-1.08s2.15-1.11,2.96-1.88l.27.54c13.1-9.1,22.7-21.8,29.18-36.31,3.46-7.74,5.4-14.56,7.53-22.73.08-.3.25-1.52.81-.94Z"/><path class="m" d="M218.48,112.43l.54,12.1c-2.61,3.27-5.25,6.57-8.34,9.41-.2.18-.6.36-.81.54l-.81-19.1c3.14-.97,6.29-1.94,9.41-2.96Z"/><path class="t" d="M222.24,111.36l.54,7.8c-1.35,1.89-2.21,3.43-3.77,5.38l-.54-12.1c1.24-.41,2.55-.67,3.77-1.08Z"/><path class="t" d="M221.98,130.19c-.05.56-.22.88-.27,1.34-1.08,1.39-1.86,3.03-2.69,4.57l-.27-8.88c1.11-1.35,2.49-3.36,3.5-4.84.14,2.57-.03,5.24-.27,7.8Z"/><path class="o" d="M222.24,122.39c-1,1.48-2.38,3.49-3.5,4.84-2.01,2.44-4.9,5.1-7.26,7.26l-.81-.54c3.09-2.84,5.72-6.14,8.34-9.41,1.55-1.94,2.42-3.49,3.77-5.38,1.11-1.56,2.79-3.01,3.5-4.98.3-.23.56.26.54.54-.05.64-3.9,6.67-4.57,7.67Z"/><path class="s" d="M196.69,79.89c-.1-.52-.16-1.11-.27-1.61l14.79,5.51-14.52-3.9Z"/><path class="y" d="M179.26,138.02c-15.89,19.8-39.3,39.46-61.64,51.87-2.95,1.64-6.06,2.93-9.14,4.3l-.27-.54c1.03-.46,1.97-1.13,2.96-1.61,12.87-6.29,25.01-15.16,35.91-24.47,11.28-9.64,20.21-20.92,35.04-35.04-.29.87-2.39,4.71-2.85,5.49Z"/><path class="t" d="M140.21,189.62c-.36.25-.7.56-1.08.81-10.44,7.05-22.01,12.64-34.16,16.14-.21-.8.44-.89.94-1.08,4.37-1.62,8.94-2.91,12.91-4.84.29-.14-.02-.66.27-.81.1-.05.11.76.54.54.73-.37,1.77-1.55,1.88-1.61,6.07-3.39,11.94-6.65,17.62-10.76.08.71.1,1.88,1.08,1.61Z"/><path class="m" d="M208.26,144.17c-.91,4.35-3.31,8.16-5.11,12.1-9.6,9.31-38.82,36.09-50.15,39.35,0,0,11.03-7.2,21.91-21.07,12.85-8.06,22.59-19.9,33.35-30.39Z"/><path class="t" d="M219.02,136.1c-.9,1.67-2.23,3.42-2.42,5.38-.77.98-2.1,3.85-2.69,5.11l-11.3,11.83c.11-.23.27-1.57.54-2.15,1.8-3.94,4.2-7.75,5.11-12.1.48-2.29.59-4.66.54-6.99.83-.69,1.87-1.94,2.69-2.69,2.36-2.16,5.25-4.82,7.26-7.26l.27,8.88Z"/><path class="s" d="M211.49,134.49c-.82.75-1.86,2-2.69,2.69-2.89,2.4-9.47,7.14-12.78,8.61-.53.24-.79.76-1.21.13,5.06-3.76,10.36-7.21,15.06-11.43.2-.18.61-.35.81-.54l.81.54Z"/><path class="z" d="M117.35,176.71c-.1,1-.42,6.78-.94,6.99-1.51.62-.47-5.81-.4-6.99h1.34Z"/><path class="y" d="M211.22,167.84c-7.21,14.27-18.76,25.9-32.54,33.89l-3.23-3.77c12.01-8.19,21.65-18.41,29.05-30.93,2.15.76,4.81,2.92,6.72.81Z"/><path class="o" d="M205.6,151.29c-.27.58-2.88,6.9-2.99,7.13-2.25,4.67-5.44,10.03-8.61,14.52-1.77,2.35-3.91,1.19-6.32,2.69-.7.43-.92,1.7-1.34,1.88-.36.15-1.57-.16-1.88,0-1.4.69-4.1,3.21-5.51,4.44-.1.09.28.85-.4,1.48-1.4,1.28-4.03,1.95-5.51,3.9-.31.41.3,1.03.27,1.08-2.26,2.77-6.84,3.97-6.72,8.2-3.71,1.39-9.7.47-13.58-.99,6.35-4.67,14.37-8.75,20.37-13.78,10.24-8.58,22.63-21.25,32.23-30.56Z"/><path class="y" d="M194,172.95c-6.29,8.92-17.08,19.79-27.43,23.67-.12-4.23,4.46-5.43,6.72-8.2.04-.04-.58-.67-.27-1.08,1.48-1.95,4.12-2.62,5.51-3.9.68-.62.3-1.39.4-1.48,1.41-1.23,4.11-3.75,5.51-4.44.32-.16,1.52.15,1.88,0,.42-.18.65-1.45,1.34-1.88,2.41-1.5,4.55-.33,6.32-2.69Z"/><path class="o" d="M217.67,164.34c-6.49,14.51-16.09,27.21-29.18,36.31l-.27-.54c-.81.77-2.14,1.27-2.96,1.88s-.03.85-.27,1.08c-.5.48-1.26-.05-1.34,0-.3.2-.04.88-.13.94-3.3,2.29-8.59,4-12.37,5.51,2.09-2.04,6.23-2.64,8.47-4.3.64-.47.61-1.43.67-1.48,4.73-3.32,9.92-5.98,14.39-10.09s7.79-9.54,11.43-14.39c.17-.22.97.06,1.61-.81,2.03-2.74,4.66-6.76,6.45-9.68.86-1.4.94-5.28,3.5-4.44Z"/><path class="o" d="M217.4,150.09c-.68,3.33-1.34,5.43-2.42,8.61-1.18,1.75-2.85-.52-3.09-.54-.16,0-1.29,1.29-2.82.54,1.87-3.88,3.09-8.36,4.84-12.1.59-1.26,1.92-4.13,2.69-5.11.27-.34,2.03-2.4,2.42-1.75-.19,3.52-.91,6.92-1.61,10.35Z"/><path class="s" d="M214.98,158.69c-1.16,3.42-2.13,5.92-3.77,9.14-1.91,2.12-4.58-.04-6.72-.81,1.59-2.69,3.22-5.53,4.57-8.34,1.53.75,2.66-.55,2.82-.54.25.01,1.91,2.28,3.09.54Z"/><path class="m" d="M151.04,194.2c-18.7,18.83-60.27,22.58-60.27,22.58,0,0-12.12-5.55-14.46-6.86,13.07,4.32,41.5-3.2,58.17-13.29,15.61-9.45,32.84-26.53,38.46-37.26,9.72-18.58,14.97-10.59,14.97-10.59,0,0-4.19,9.67-9.23,17.06-5.36,7.85-21.7,21.05-21.7,21.05l1.54,1.42s-6.11,4.53-7.47,5.9Z"/><path class="s" d="M178.67,201.73c-3.79,2.19-7.47,4.07-11.56,5.65l-1.61-3.23c3.36-1.79,6.8-4.04,9.95-6.19l3.23,3.77Z"/><path class="o" d="M165.5,204.15l1.61,3.23c-5.8,2.24-12.01,4.27-18.29,4.44,5.4-2.85,11.29-4.79,16.68-7.67Z"/><path class="m" d="M217.4,150.09c.7-3.43,1.42-6.84,1.61-10.35-.39-.65-2.15,1.41-2.42,1.75.19-1.96,1.52-3.71,2.42-5.38.83-1.54,1.61-3.18,2.69-4.57-.68,6.19-1.77,12.18-3.5,18.15-.09.33-.36.85-.81.4Z"/><path class="o" d="M169.26,210.33c-2.29.88-3.86,1.41-6.19,2.15,1.6-.57,3.55-1.88,4.98-2.42.58-.22.83-.26,1.21.27Z"/><path class="o" d="M159.85,213.56c-1.32.38-2.66,1.01-4.03,1.34.6-1.04,2.85-1.05,4.03-1.34Z"/><path class="o" d="M163.07,212.49c-1.33.48-1.74.7-3.23,1.08,1.02-.3,2.18-.74,3.23-1.08Z"/><path class="j" d="M80.03,88.29h16.25l25.9,61.27h-18.08l-4.43-10.86h-23.47l-4.35,10.86h-17.73l25.9-61.27ZM94.8,125.58l-6.78-17.3-6.87,17.3h13.65Z"/><path class="j" d="M128.09,88.73h26.07c15.38,0,25.29,7.91,25.29,21.38v.17c0,14.34-11.04,21.9-26.16,21.9h-8.34v17.38h-16.86v-60.84ZM152.95,118.97c6,0,9.65-3.13,9.65-7.91v-.17c0-5.21-3.65-8-9.73-8h-7.91v16.08h8Z"/><path class="j" d="M186.94,88.73h16.95v60.84h-16.95v-60.84Z"/><g class="x"><ellipse class="l" cx="128.43" cy="116.58" rx="136.8" ry="54.44" transform="translate(-43.29 92.13) rotate(-34.13)"/><ellipse class="k" cx="128.43" cy="116.58" rx="136.8" ry="54.44" transform="translate(-43.29 92.13) rotate(-34.13)"/></g></svg>