<?xml version="1.0" encoding="UTF-8" standalone="no"?>
<!DOCTYPE svg PUBLIC "-//W3C//DTD SVG 1.1//EN" "http://www.w3.org/Graphics/SVG/1.1/DTD/svg11.dtd">
<svg width="100%" height="100%" viewBox="0 0 512 512" version="1.1" xmlns="http://www.w3.org/2000/svg" xmlns:xlink="http://www.w3.org/1999/xlink" xml:space="preserve" xmlns:serif="http://www.serif.com/" style="fill-rule:evenodd;clip-rule:evenodd;stroke-linejoin:round;stroke-miterlimit:2;">
    <g id="Page-1" serif:id="Page 1" transform="matrix(2,0,0,2,0,0)">
        <rect x="0" y="0" width="256" height="256" style="fill:none;"/>
        <g id="Layer-1" serif:id="Layer 1">
        </g>
        <g id="Layer-2" serif:id="Layer 2">
        </g>
        <g id="functions">
            <g opacity="0.7">
                <g transform="matrix(1,0,0,1,43.9956,8.0364)">
                    <path d="M0,244.881C-2.923,244.881 -5.848,244.718 -8.771,244.393C-11.695,244.066 -14.456,243.42 -17.055,242.444L-17.055,215.885C-15.267,216.696 -13.238,217.265 -10.964,217.592C-8.687,217.915 -6.659,218.078 -4.872,218.078C0.327,218.078 4.142,216.128 6.579,212.23C9.016,208.332 10.882,203.13 12.183,196.636L37.281,78.947L21.929,78.947L25.342,62.865L42.397,53.849L45.078,43.129C46.865,34.844 49.3,27.454 52.387,20.954C55.473,14.46 59.778,9.342 65.302,5.604C70.823,1.87 77.973,0 86.746,0C91.13,0 95.433,0.448 99.658,1.341C103.88,2.235 107.943,3.655 111.842,5.604L101.852,29.239C97.953,27.131 94.055,26.072 90.156,26.072C86.093,26.072 83.006,27.698 80.896,30.946C78.784,34.196 77.158,38.42 76.024,43.615L73.831,53.605L94.786,53.605L89.668,78.947L68.471,78.947L42.641,200.047C40.852,208.819 38.336,216.575 35.088,223.317C31.836,230.057 27.45,235.337 21.929,239.156C16.407,242.969 9.1,244.881 0,244.881" style="fill-rule:nonzero;"/>
                </g>
            </g>
            <g opacity="0.7">
                <g transform="matrix(1,0,0,1,153.549,96.0367)">
                    <path d="M0,127.929C-8.902,127.929 -15.258,126.29 -19.073,123.015C-22.887,119.736 -24.794,115.165 -24.794,109.297C-24.794,107.926 -24.697,106.51 -24.5,105.043C-24.306,103.575 -24.061,102.158 -23.767,100.788L-20.686,85.97C-20.59,85.09 -20.443,84.21 -20.246,83.33C-20.052,82.449 -19.953,81.521 -19.953,80.542C-19.953,77.512 -20.884,75.213 -22.741,73.646C-24.599,72.084 -27.779,71.299 -32.276,71.299L-29.049,55.895C-24.061,55.799 -20.15,54.722 -17.312,52.668C-14.476,50.613 -12.57,47.289 -11.591,42.692L-7.189,22.006C-5.919,16.137 -3.961,11.614 -1.32,8.435C1.32,5.258 4.767,3.057 9.022,1.833C13.276,0.611 18.533,0 24.793,0L26.848,0L23.472,15.257C19.461,15.356 16.431,16.163 14.377,17.678C12.324,19.195 10.856,22.056 9.975,26.26L5.574,46.799C3.616,56.775 -2.838,62.498 -13.791,63.964L-13.938,64.551C-9.83,65.725 -6.822,67.536 -4.915,69.979C-3.007,72.425 -2.055,75.36 -2.055,78.781C-2.055,79.955 -2.153,81.203 -2.347,82.523C-2.545,83.844 -2.788,85.237 -3.082,86.704L-6.015,100.788C-6.309,102.549 -6.456,104.016 -6.456,105.19C-6.456,107.732 -5.82,109.59 -4.549,110.764C-3.279,111.938 -1.078,112.573 2.054,112.672L2.054,127.929L0,127.929Z" style="fill-rule:nonzero;"/>
                </g>
            </g>
            <g opacity="0.7">
                <g transform="matrix(1,0,0,1,177.11,96.0367)">
                    <path d="M0,127.929L0,112.672C4.206,112.573 7.482,111.766 9.83,110.251C12.177,108.733 13.79,105.873 14.671,101.669L19.072,81.129C20.048,76.24 22.127,72.352 25.307,69.465C28.484,66.582 32.91,64.748 38.584,63.964L38.731,63.377C34.622,62.204 31.59,60.395 29.634,57.949C27.677,55.506 26.701,52.571 26.701,49.146C26.701,47.972 26.797,46.726 26.994,45.405C27.189,44.085 27.434,42.692 27.728,41.224L30.809,27.14C31.004,26.359 31.102,25.6 31.102,24.866L31.102,22.739C31.102,17.85 27.874,15.356 21.419,15.257L24.647,0L25.966,0C34.671,0 40.759,1.54 44.232,4.62C47.703,7.702 49.44,12.127 49.44,17.898C49.44,19.268 49.367,20.808 49.22,22.519C49.074,24.231 48.854,25.82 48.56,27.287L45.48,41.957C45.282,42.839 45.087,43.718 44.892,44.598C44.695,45.478 44.599,46.41 44.599,47.386C44.599,50.419 45.528,52.718 47.387,54.281C49.243,55.847 52.471,56.628 57.069,56.628L53.842,72.033C43.961,72.131 38.093,76.533 36.237,85.237L31.836,105.923C30.563,111.594 28.729,116.046 26.334,119.273C23.936,122.5 20.708,124.75 16.652,126.022C12.591,127.291 7.433,127.929 1.174,127.929L0,127.929Z" style="fill-rule:nonzero;"/>
                </g>
            </g>
            <g transform="matrix(1,0,0,1,148.43,91.0826)">
                <path d="M0,127.929C-8.902,127.929 -15.258,126.29 -19.073,123.015C-22.887,119.736 -24.794,115.165 -24.794,109.297C-24.794,107.926 -24.697,106.51 -24.5,105.043C-24.306,103.575 -24.061,102.158 -23.767,100.788L-20.686,85.97C-20.59,85.09 -20.443,84.21 -20.246,83.33C-20.052,82.449 -19.953,81.521 -19.953,80.542C-19.953,77.512 -20.884,75.213 -22.741,73.646C-24.599,72.084 -27.779,71.299 -32.276,71.299L-29.049,55.895C-24.061,55.798 -20.15,54.722 -17.312,52.668C-14.476,50.613 -12.57,47.289 -11.591,42.692L-7.189,22.006C-5.919,16.137 -3.961,11.614 -1.32,8.435C1.32,5.258 4.767,3.057 9.022,1.833C13.276,0.611 18.533,0 24.793,0L26.848,0L23.472,15.257C19.461,15.356 16.431,16.163 14.377,17.678C12.324,19.195 10.856,22.056 9.975,26.26L5.574,46.799C3.616,56.775 -2.838,62.498 -13.791,63.964L-13.938,64.551C-9.83,65.725 -6.822,67.536 -4.915,69.979C-3.007,72.425 -2.055,75.36 -2.055,78.781C-2.055,79.955 -2.153,81.203 -2.347,82.523C-2.545,83.844 -2.788,85.237 -3.081,86.704L-6.015,100.788C-6.309,102.549 -6.456,104.016 -6.456,105.19C-6.456,107.731 -5.82,109.59 -4.549,110.764C-3.278,111.938 -1.078,112.573 2.054,112.672L2.054,127.929L0,127.929Z" style="fill:rgb(0,187,0);fill-rule:nonzero;"/>
            </g>
            <g transform="matrix(1,0,0,1,171.99,91.0826)">
                <path d="M0,127.929L0,112.672C4.206,112.573 7.482,111.766 9.83,110.251C12.177,108.733 13.79,105.873 14.671,101.669L19.072,81.129C20.048,76.24 22.127,72.352 25.307,69.465C28.484,66.582 32.91,64.748 38.584,63.964L38.731,63.377C34.622,62.204 31.59,60.395 29.634,57.949C27.677,55.506 26.701,52.571 26.701,49.146C26.701,47.972 26.797,46.726 26.994,45.405C27.189,44.085 27.434,42.692 27.728,41.224L30.809,27.14C31.004,26.359 31.102,25.6 31.102,24.866L31.102,22.739C31.102,17.85 27.874,15.356 21.419,15.257L24.647,0L25.967,0C34.671,0 40.759,1.54 44.232,4.62C47.703,7.702 49.44,12.127 49.44,17.898C49.44,19.268 49.367,20.808 49.22,22.519C49.074,24.231 48.854,25.82 48.56,27.287L45.48,41.957C45.282,42.839 45.087,43.718 44.892,44.598C44.695,45.478 44.599,46.41 44.599,47.386C44.599,50.419 45.528,52.718 47.387,54.281C49.243,55.847 52.471,56.628 57.069,56.628L53.842,72.033C43.961,72.131 38.093,76.533 36.237,85.237L31.836,105.923C30.563,111.594 28.729,116.046 26.334,119.273C23.936,122.5 20.708,124.75 16.652,126.022C12.591,127.291 7.433,127.929 1.174,127.929L0,127.929Z" style="fill:rgb(0,187,0);fill-rule:nonzero;"/>
            </g>
            <g transform="matrix(1,0,0,1,38.8763,3.0823)">
                <path d="M0,244.881C-2.923,244.881 -5.848,244.718 -8.771,244.393C-11.695,244.066 -14.456,243.42 -17.055,242.444L-17.055,215.885C-15.267,216.696 -13.238,217.265 -10.964,217.592C-8.687,217.915 -6.659,218.078 -4.872,218.078C0.327,218.078 4.142,216.128 6.579,212.23C9.016,208.332 10.882,203.13 12.183,196.636L37.281,78.947L21.929,78.947L25.342,62.865L42.397,53.849L45.078,43.129C46.865,34.844 49.3,27.454 52.387,20.954C55.473,14.46 59.778,9.342 65.302,5.604C70.823,1.87 77.973,0 86.746,0C91.13,0 95.433,0.448 99.658,1.341C103.88,2.235 107.943,3.655 111.842,5.604L101.852,29.239C97.953,27.131 94.055,26.072 90.156,26.072C86.093,26.072 83.006,27.698 80.896,30.946C78.784,34.196 77.158,38.42 76.024,43.615L73.831,53.605L94.786,53.605L89.668,78.947L68.471,78.947L42.641,200.047C40.852,208.819 38.336,216.575 35.088,223.317C31.836,230.057 27.45,235.337 21.929,239.156C16.407,242.969 9.1,244.881 0,244.881" style="fill:rgb(0,187,0);fill-rule:nonzero;"/>
            </g>
        </g>
    </g>
</svg>
