<?xml version="1.0" encoding="UTF-8" standalone="no"?>
<!DOCTYPE svg PUBLIC "-//W3C//DTD SVG 1.1//EN" "http://www.w3.org/Graphics/SVG/1.1/DTD/svg11.dtd">
<svg width="100%" height="100%" viewBox="0 0 500 325" version="1.1" xmlns="http://www.w3.org/2000/svg" xmlns:xlink="http://www.w3.org/1999/xlink" xml:space="preserve" xmlns:serif="http://www.serif.com/" style="fill-rule:evenodd;clip-rule:evenodd;stroke-linejoin:round;stroke-miterlimit:2;">
    <g transform="matrix(1.01502,0,0,1.01502,199.249,113.339)">
        <path d="M276.597,-68.442L276.597,193.442C276.597,201.74 269.846,208.529 261.519,208.529L-161.519,208.529C-169.839,208.529 -176.597,201.775 -176.597,193.442L-176.597,-68.442C-176.597,-76.74 -169.846,-83.529 -161.519,-83.529L261.519,-83.529C269.839,-83.529 276.597,-76.775 276.597,-68.442ZM266.526,-33.237C266.526,-34.556 266.002,-35.821 265.07,-36.753C264.137,-37.686 262.872,-38.21 261.553,-38.21L-161.553,-38.21C-162.872,-38.21 -164.137,-37.686 -165.07,-36.753C-166.002,-35.821 -166.526,-34.556 -166.526,-33.237L-166.526,188.365C-166.526,193.939 -162.028,198.458 -156.459,198.458L256.459,198.458C262.019,198.458 266.526,193.942 266.526,188.365L266.526,-33.237ZM57.344,99.987L43.808,99.987L43.808,93.075C43.808,90.579 44.048,88.323 44.528,86.307C45.008,84.291 45.704,82.467 46.616,80.835C47.528,79.203 48.632,77.643 49.928,76.155C51.224,74.667 52.688,73.155 54.32,71.619L59.648,66.579C61.76,64.755 63.512,62.763 64.904,60.603C66.296,58.443 66.992,55.683 66.992,52.323C66.992,47.715 65.528,44.043 62.6,41.307C59.672,38.571 55.904,37.203 51.296,37.203C46.496,37.203 42.656,38.739 39.776,41.811C36.896,44.883 35.216,48.627 34.736,53.043L20.912,51.459C21.488,47.331 22.688,43.611 24.512,40.299C26.336,36.987 28.616,34.179 31.352,31.875C34.088,29.571 37.232,27.819 40.784,26.619C44.336,25.419 48.128,24.819 52.16,24.819C56.192,24.819 59.96,25.395 63.464,26.547C66.968,27.699 70.064,29.403 72.752,31.659C75.44,33.915 77.552,36.699 79.088,40.011C80.624,43.323 81.392,47.139 81.392,51.459C81.392,54.531 81.056,57.219 80.384,59.523C79.712,61.827 78.776,63.915 77.576,65.787C76.376,67.659 74.912,69.411 73.184,71.043C71.456,72.675 69.584,74.355 67.568,76.083C65.648,77.715 64.016,79.179 62.672,80.475C61.328,81.771 60.272,83.091 59.504,84.435C58.736,85.779 58.184,87.267 57.848,88.899C57.512,90.531 57.344,92.547 57.344,94.947L57.344,99.987ZM60.944,120.291C60.944,122.787 60.032,124.995 58.208,126.915C56.384,128.835 54.08,129.795 51.296,129.795C48.608,129.795 46.328,128.859 44.456,126.987C42.584,125.115 41.648,122.931 41.648,120.435C41.648,117.843 42.56,115.611 44.384,113.739C46.208,111.867 48.512,110.931 51.296,110.931C54.08,110.931 56.384,111.843 58.208,113.667C60.032,115.491 60.944,117.699 60.944,120.291ZM248.902,-53.316C253.074,-53.316 256.455,-56.698 256.455,-60.87C256.455,-65.041 253.074,-68.423 248.902,-68.423C244.731,-68.423 241.349,-65.041 241.349,-60.87C241.349,-56.698 244.731,-53.316 248.902,-53.316ZM223.725,-53.316C227.896,-53.316 231.278,-56.698 231.278,-60.87C231.278,-65.041 227.896,-68.423 223.725,-68.423C219.553,-68.423 216.171,-65.041 216.171,-60.87C216.171,-56.698 219.553,-53.316 223.725,-53.316ZM198.547,-53.316C202.719,-53.316 206.1,-56.698 206.1,-60.87C206.1,-65.041 202.719,-68.423 198.547,-68.423C194.376,-68.423 190.994,-65.041 190.994,-60.87C190.994,-56.698 194.376,-53.316 198.547,-53.316Z" style="fill:rgb(128,128,128);"/>
    </g>
</svg>
