<?xml version="1.0" encoding="UTF-8"?><svg id="a" xmlns="http://www.w3.org/2000/svg" xmlns:xlink="http://www.w3.org/1999/xlink" viewBox="0 0 256 256"><defs><style>.e{fill:#b2e6fd;}.f{fill:#159fec;}.g,.h{fill:#fff;}.i{fill:url(#c);}.j{fill:url(#d);}.k{fill:#002d97;}.l{fill:#78d6fc;}.m{fill:#0682e0;}.h{stroke:#004fc1;stroke-miterlimit:10;stroke-width:2px;}.n{fill:#46c7fa;}.o{fill:#e7f7fd;}.p{fill:#003bb0;}.q{fill:#0db4f5;}.r{fill:#0274da;}.s{fill:#0d91ec;}.t{fill:#004fc1;}.u{fill:#0164d4;}</style><linearGradient id="c" x1="167.57" y1="141.76" x2="157.29" y2="181.7" gradientUnits="userSpaceOnUse"><stop offset="0" stop-color="#23a7f2"/><stop offset="1" stop-color="#0a7ce2"/></linearGradient><linearGradient id="d" x1="51.19" y1="142.01" x2="122.54" y2="161.75" gradientUnits="userSpaceOnUse"><stop offset="0" stop-color="#086ed8"/><stop offset=".51" stop-color="#2aa8f3"/><stop offset=".67" stop-color="#30acf4"/><stop offset="1" stop-color="#087ae1"/></linearGradient></defs><polygon id="b" class="g" points="74.85 32.27 128.43 5 237.12 59.71 236.14 187.32 129.32 251.28 37.91 196.57 18.92 60.2 74.85 32.27"/><path class="l" d="M130.29,18.15c0,.11-1.42-.43.49,1.3,1.48,1.34,3.84,1.85,4.55,2.27.34.2-.01.78.32.97.7.41,1.7-.04,2.92.65.31.18-.5.52.32.97,22.56,12.55,46.34,23.3,68.35,36.69-25.45,14.81-52.49,27-78.09,41.56l-1.79-.65-1.3-1.14c-.04-1.32,1.04-3.1,2.44-2.11.64.45-.61,2.12.49,2.44.05-2.67.26-5.28.32-7.96.65-26.62-1.02-53.28,0-79.88l.49-1.62.81.49c0,2.04-.21,3.99-.32,6.01Z"/><path class="e" d="M125.42,33.09c.05,5.03.26,10.06,0,15.1.07.59.26,1.25.58,2.02l.39.41c0,4.09.61,8.42.65,12.5l.32,35.07c2.57,1.09,0-4.22,1.95-5.03-.06,2.67-.27,5.28-.32,7.96-1.1-.32.15-1.99-.49-2.44-1.4-.98-2.47.79-2.44,2.11l1.3,1.14c-20.6-10.75-41.16-21.6-61.69-32.47l59.26-31.82-.32-2.92-46.92,25.16-.65-.65c16.17-8.44,32.34-16.88,48.06-26.14h.32Z"/><path class="l" d="M34.83,58.74c-.37.67,4.68,3.22,5.84,3.9,2.2,1.27,3.94,2.12,6.17,3.25,4.82,2.86,9.91,5.3,14.61,8.28.03.02-.69.47-.16.81,9.67,6.18,20.76,11.52,31.01,16.88l-1.62,3.25c-22.94-11.97-46.25-24.23-69.21-36.18L127.14,5.65c-.08.66-.17,3.92-.3,5.26L34.83,58.74Z"/><path class="n" d="M126.39,50.62l.59,11.92c-.94-3.01-1.59-13.19-1.56-14.36.13-4.59.05-10.07,0-15.1-.02-2.12.38-4.43.32-6.49-.04-1.52-.21-3.33-.32-4.87-.05-.62.37-2.14-.49-2.27-13.54,6.9-27.04,13.88-40.59,20.78-11.48,5.85-24.17,13.51-36.53,18.83-.13.06-1.41-.02-2.6.65-.54.31-2.07.42-1.46,1.3,7.73,3.7,15.29,7.75,22.89,11.69l-.97,2.27c-6.2-3.17-12.64-5.95-18.83-9.09-1.96-1.17-3.84-2.77-6.17-3.25-1.16-.67-6.22-3.22-5.84-3.9L126.88,11.33c.08,7.2.2,14.4.16,21.59-.03,5.7-.66,12.01-.65,17.7Z"/><path class="e" d="M213.41,70.75c-28.2,14.82-56.6,29.26-84.58,44.48-12.89-6.37-25.41-13.49-38.15-20.13l1.62-3.25c12.1,6.33,24.53,12.48,36.85,18.18,14.66-7.38,29.1-15.19,43.67-22.73.75,3.43,3.73.37,5.84-.65,11.29-5.44,22.11-11.85,33.28-17.53l1.46,1.62Z"/><path class="n" d="M228.35,62.96c-1.92,1.01-3.93,1.9-5.84,2.92.2-.7-1.11-1.71-.97-2.11.36-1.07,9.57-6.47,6.82-.81Z"/><path class="o" d="M211.14,59.39c-26.84,15.01-54.13,29.42-81.34,43.83-.45.08-4.39-.2-4.87-.32-4.66-1.21-23.17-11.94-29.06-14.94-3.5-1.78-6.9-4.05-10.39-5.84.42-1.5-1.54-2.35-3.08-3.25-9.81-5.71-23.25-13.01-33.44-17.86-1.25-.59-2.53-.7-3.73-1.3,1.18-.67,2.46-.59,2.6-.65-1.66.69,2.06,1.97,2.6,2.27,5.02,2.81,10.18,5.42,15.26,8.12,20.53,10.87,41.1,21.72,61.69,32.47l1.79.65c25.6-14.56,52.64-26.75,78.09-41.56.74-.43,2.04-.48,2.6-1.46l-29.22-15.42c10.14,5.14,20.39,10.11,30.52,15.26Z"/><path class="e" d="M130.29,18.15c16.71,8.76,33.5,17.44,50.33,25.98l29.22,15.42c-.56.98-1.86,1.03-2.6,1.46-22.01-13.39-45.79-24.14-68.35-36.69-.82-.46-.01-.8-.32-.97-1.23-.69-2.22-.24-2.92-.65-.34-.2.01-.77-.32-.97-.71-.42-3.06-.93-4.55-2.27-1.91-1.73-.49-1.19-.49-1.3Z"/><path class="l" d="M125.74,26.59l-3.9,1.79.65.65,2.6-1.3v2.27l-48.06,25.65,47.57-24.51.49,1.95c-15.71,9.26-31.88,17.7-48.06,26.14l.65.65,46.92-25.16.32,2.92-59.26,31.82c-5.08-2.69-10.24-5.31-15.26-8.12L125.42,21.72c.12,1.54.28,3.35.32,4.87Z"/><path class="e" d="M125.74,26.59c.05,2.07-.35,4.38-.32,6.49h-.32l-.49-1.95-47.57,24.51,48.06-25.65v-2.27l-2.6,1.3-.65-.65,3.9-1.79Z"/><path class="o" d="M209.19,66.53c-10.05,5.31-20.13,10.62-30.36,15.59-1.08.73.56.88.49,1.95-.56.29-1.1.7-1.62.97-1.57.81-3.29,1.45-4.87,2.27-14.57,7.54-29.01,15.35-43.67,22.73-12.33-5.7-24.75-11.86-36.85-18.18-10.25-5.36-21.34-10.71-31.01-16.88-.53-.34.2-.79.16-.81-4.7-2.98-9.79-5.42-14.61-8.28,6.2,3.14,12.63,5.92,18.83,9.09,9.87,5.04,19.71,10.18,29.55,15.26,11.05,5.71,21.95,11.73,32.96,17.53,10.93-5.31,21.52-11.31,32.31-16.88,12.86-6.64,25.77-13.19,38.64-19.81,5.29-2.72,18.61-11.01,23.22-12.34.38-.11,1.53-.14.97.65-4.9,1.96-9.47,4.69-14.12,7.14Z"/><path class="e" d="M197.83,69.13c-12.52,6.63-25.4,12.65-37.83,19.48-.78.41.07,1.54.49,2.27-10.79,5.57-21.38,11.57-32.31,16.88-11-5.8-21.91-11.82-32.96-17.53l.65-2.27c5.89,3,24.41,13.72,29.06,14.94.48.13,4.42.4,4.87.32,27.2-14.42,54.5-28.83,81.34-43.83.59.3,2.35.44,2.44,1.3-5.41,2.5-10.5,5.66-15.75,8.44Z"/><path class="l" d="M197.83,69.13l1.3,1.95c-12.87,6.62-25.78,13.17-38.64,19.81-.42-.73-1.26-1.87-.49-2.27,12.42-6.83,25.31-12.85,37.83-19.48Z"/><path class="l" d="M179.32,84.06c.07-1.07-1.57-1.22-.49-1.95,10.23-4.97,20.31-10.27,30.36-15.59l.65,1.46c-9.59,5.86-20.36,10.82-30.52,16.07Z"/><path class="l" d="M177.7,85.04l.97,1.62c-2.12,1.02-5.09,4.08-5.84.65,1.58-.82,3.3-1.46,4.87-2.27Z"/><path class="n" d="M237.12,59.71l-2.37,1.37c-.19-.76-.53-1.19-1.57-.54l-.77.47c-1.39.57-2.74,1.25-4.06,1.95,2.75-5.65-6.46-.26-6.82.81-.13.4,1.18,1.42.97,2.11-3.03,1.61-6.05,3.27-9.09,4.87l-1.46-1.62c-11.17,5.69-21.99,12.09-33.28,17.53l-.97-1.62c.53-.27,1.07-.69,1.62-.97,10.16-5.25,20.94-10.21,30.52-16.07l-.65-1.46c4.65-2.46,9.22-5.18,14.12-7.14.55-.79-.6-.76-.97-.65-4.6,1.33-17.92,9.62-23.22,12.34l-1.3-1.95c5.25-2.78,10.33-5.94,15.75-8.44-.09-.86-1.84-1-2.44-1.3-10.13-5.16-20.38-10.12-30.52-15.26-16.83-8.54-33.62-17.22-50.33-25.98.12-2.02.33-3.97.32-6.01l-.81-.49-.49,1.62.16-7.79,107.64,54.22Z"/><path class="l" d="M204.97,49.97c1.2.53,14.22,6.24,13.96,6.98-4.64-1.91-9.43-4.51-13.96-6.98Z"/><path class="l" d="M167.14,30.49l11.85,6.01c-3.03-1.43-8.59-3.28-11.2-5.03-.4-.27-1.14-.43-.65-.97Z"/><path class="l" d="M188.41,41.53c3.7,1.54,7.42,3.02,10.72,5.36-3.68-1.46-7.29-3.38-10.72-5.36Z"/><path class="l" d="M204.97,49.97c-1.83-.81-4.07-1.17-5.52-2.76,2.07.15,3.86,1.86,5.52,2.76Z"/><path class="l" d="M188.41,41.53c-.8-.33-1.73-.23-2.27-1.14.92-.43,1.83.88,2.27,1.14Z"/><path class="l" d="M181.75,37.96c.27-.16.83.44.81.49-.25.54-1.54-.05-.81-.49Z"/><path class="l" d="M149.93,21.72c.67-.01,1.13.78.32.65-.06,0-.65-.48-.32-.65Z"/><path class="o" d="M46.84,65.88c-2.23-1.13-3.97-1.98-6.17-3.25,2.33.48,4.21,2.08,6.17,3.25Z"/><path class="l" d="M125.42,21.72L50.41,61.33c-.54-.3-4.26-1.58-2.6-2.27,12.35-5.33,25.05-12.99,36.53-18.83,13.54-6.9,27.04-13.89,40.59-20.78.86.13.44,1.65.49,2.27Z"/><path class="l" d="M85.48,82.12c3.49,1.79,6.89,4.07,10.39,5.84l-.65,2.27c-9.84-5.09-19.68-10.22-29.55-15.26l.97-2.27c6.22,3.22,12.6,6.21,18.83,9.42Z"/><path class="e" d="M85.48,82.12c-6.23-3.2-12.61-6.19-18.83-9.42-7.6-3.94-15.16-7.99-22.89-11.69-.61-.88.92-.99,1.46-1.3,1.2.6,2.49.71,3.73,1.3,10.19,4.85,23.63,12.15,33.44,17.86,1.54.9,3.5,1.74,3.08,3.25Z"/><path class="q" d="M231.92,181.8c.01.11-.02.22,0,.32.42,2.46,2.13,2.27,3.73,3.9.68.68.42,1.22.49,1.3-2.18,1.3-5.33,3.21-6.98,4.18-.77.45-10.37,6.21-16.34,9.79s-9.39,5.67-11.39,6.82c-1.72.99-6.14,3.67-6.14,3.67,0,0-18.38,11.04-20.2,12.13-7.01,4.16-16.24,9.7-20.46,12.22-7.11,4.26-25.33,15.17-25.33,15.17v-.97s26.92-21.96,28.57-23.38v-.65c5.12-2.95,10.15-6.14,15.26-9.09,1-.58,2.22-1.03,3.25-1.62,1.3-.75,2.6-1.52,3.9-2.27,15.12-8.73,30.15-17.52,44.97-26.63.31-.19,4.97-.65,3.73-2.92,3.25,1.28,1.46-1.29,2.92-1.95Z"/><path class="s" d="M211.46,76.6c-.76.44-4.24,2.07-4.38,2.27-.5.72.67.88.32,1.3-.27.33-6.45,3.32-7.47,3.9-.5.28-.47,1.02-.97,1.3-1.37.77-4.07.36-3.73,1.95-3.81,1.63-9.33,4.37-12.5,6.17s-5.01,4.26-8.44,5.84c-1.36-.33.61-.96.49-1.14-.49-.67-3.82,2.32-4.71,2.76-.05.03-.92-.68-.97-.65-.3.16-.11.62-.16.65-.1.06-.62.14-.97.32-.57.3-.78.54-.97.65l-31.82,16.88-1.3.81c.25,8.47.35,16.99.32,25.49,0,.65,0,1.3,0,1.95,0,1.4,0,2.82,0,4.22,0,.11,0,.22,0,.32,0,1.3,0,2.6,0,3.9l-.65,10.88h-2.92l-.32-4.87c-.56,2.86,1.19,8.27-.97,10.23.04-18.23-.03-36.48,0-54.71,18.17-9.91,36.57-19.42,54.87-29.06.37.78,1.3-.08,1.79-.32,3.99-2.06,7.99-4.58,12.01-6.49.51-.24.46,1.06,1.3.65,3.65-1.76,7.53-4.24,11.2-6.17-.17,1.47.3.6.97.97Z"/><path class="u" d="M234.84,61.33c.22.48.61,1.86.65,2.27,2,20.56-.14,51.13-.32,72.73-.1,11.14.48,22.55-.22,33.07-.11,1.72,1.11,16.5.53,16.44-.97-.11-3.62-1.43-3.56-3.73-.02-.1.01-.22,0-.32-1.8-15.18-.44-40.4-.65-55.85-.26-19.15-.75-38.44,0-57.63l-16.07,8.28c-1.56,3.08.74.36,2.11.49-4.96,3.48-10.85,6-16.23,8.93-.35-1.15-2.63.85-3.08.97-.97.26-.23-.76-2.76.32-.33-1.59,2.37-1.18,3.73-1.95.5-.28.47-1.01.97-1.3,1.02-.58,7.2-3.57,7.47-3.9.34-.42-.83-.58-.32-1.3.14-.2,3.63-1.83,4.38-2.27,6.86-3.99,14.12-7.58,21.27-11.04l1.46-2.11-.49-.49c-.33.2-.54-.32-.65-.32-.55-.02-8.57,4.53-9.74,5.2-.29.17.63.75-.32,1.3-4.02,2.29-8.39,4.33-12.5,6.49-3.67,1.93-7.56,4.41-11.2,6.17-.84.41-.79-.89-1.3-.65-4.02,1.91-8.02,4.44-12.01,6.49-.48.25-1.42,1.11-1.79.32,16.87-8.89,33.74-17.81,50.65-26.63Z"/><path class="u" d="M134.19,155.5c0,.65,0,1.3,0,1.95.03,5.68-.02,11.37,0,17.05l.65-14.94c1.24.53.43,1.63,2.6,1.14.01.87.32,2.31.32,3.25-.63-.12-2.84.31-2.27,1.14l2.27.16c0,.43,0,.87,0,1.3.03,6.74-.23,13.56,0,20.29.02.59-.33,1.6.65,1.46-.04,2.56-.3,5.18-.32,7.79-.56-.02-1.33-.13-1.62.49-.42.89.17,10.83,0,12.99-.14,1.69-.46,3.49-.65,5.2s-1.29,1.21-1.3,1.3c-1.04,6.86.77,16.25,0,23.38.42.49.63-.15.97-.16.02,0-.05.38.32.32-1.31.95-3.61,2.24-.81,2.6,6.49-3.88,13.05-7.66,19.64-11.36v.65c-4.67,2.65-9.28,5.48-13.96,8.12-.81.46-9.71,5.97-10.07,5.36v-70.46l-1.3-2.44c0-.11,0-.22,0-.32,2.17-1.95.41-7.36.97-10.23l.32,4.87h2.92l.65-10.88Z"/><path class="t" d="M190.36,212.97c-6.35,4.4-14.03,8.22-19.73,12-1.13.75-11.05,7.81-11.12,7.81-2.3-.11-16.11,8.97-17.05,8.77-.13-.03-1.01-1.87-1.79-1.95,4.68-2.64,9.29-5.47,13.96-8.12,12.52-7.1,25.18-13.97,37.5-21.43l1.14.16c-.68,1.23-1.69,1.9-2.92,2.76Z"/><path class="t" d="M140.68,239.59c.78.08,1.66,1.92,1.79,1.95.94.21,14.75-8.98,17.05-8.77-6.92,4.27-13.99,8.4-21.11,12.34-2.23,1.23-7.03,4.62-9.09,5.2v-1.62c0-25.54-.05-51.09,0-76.63l1.3,2.44v70.46c.36.62,9.26-4.9,10.07-5.36Z"/><path class="f" d="M137.11,140.89c.11,6.24.24,13.04.32,19.81-2.17.5-1.36-.61-2.6-1.14l-.65,14.94c-.02-5.68.03-11.37,0-17.05,1.08-.71,1.04-5.27,0-5.84,0-.11,0-.22,0-.32l.65-4.71-.65.49c0-.65,0-1.3,0-1.95.97.14.63-.87.65-1.46.13-4.59-.08-9.21,0-13.8,1.77,2.18-.16,8.65.65,10.55.38.89.95.38,1.62.49Z"/><path class="r" d="M201.07,86.01c-8.67,4.72-17.27,9.64-25.98,14.29-.63.34-1.96.64-2.6.97l-18.67,9.09c2.78-3.02,7.71-4.74,11.36-6.82.51-.29,1.68-1.56,1.79-1.62.19-.11.4-.35.97-.65-.51,1.04,1.55.31.97-.32.05-.03-.14-.49.16-.65.05-.03.92.68.97.65.89-.44,4.22-3.43,4.71-2.76.13.17-1.84.81-.49,1.14,3.43-1.59,5.19-4,8.44-5.84s8.69-4.54,12.5-6.17c2.53-1.08,1.79-.06,2.76-.32.46-.12,2.73-2.13,3.08-.97Z"/><path class="l" d="M172.5,101.27c-11.91,6.35-23.66,13.06-35.72,19.16,0-.03-.69.09-.65-.16.12-.85,13.28-7.12,15.1-8.28.49-.31,2.21-1.15,1.62-1.95l-17.37,9.09-.32-.32,31.82-16.88c-.1.06-1.27,1.33-1.79,1.62-3.65,2.08-8.58,3.8-11.36,6.82l18.67-9.09Z"/><path class="r" d="M211.46,76.6c-.67-.38-1.14.49-.97-.97,4.11-2.16,8.48-4.2,12.5-6.49.96-.55.04-1.13.32-1.3,1.17-.67,9.19-5.21,9.74-5.2.11,0,.32.53.65.32l.49.49-1.46,2.11c-7.15,3.46-14.41,7.05-21.27,11.04Z"/><path class="e" d="M135.16,118.81l.32.32-.65.81c-.04,3.3.06,6.61,0,9.9-.08,4.59.13,9.21,0,13.8-.02.59.33,1.6-.65,1.46.02-8.5-.07-17.02-.32-25.49l1.3-.81Z"/><path class="l" d="M134.19,157.45c0-.65,0-1.3,0-1.95,0-1.3,0-2.6,0-3.9,1.04.58,1.08,5.13,0,5.84Z"/><path class="l" d="M134.19,151.28c0-1.4,0-2.82,0-4.22l.65-.49-.65,4.71Z"/><path class="f" d="M168.93,100.95c.57.64-1.49,1.36-.97.32.35-.18.87-.27.97-.32Z"/><path class="t" d="M231.27,125.95l-.49,54.55c-.6-.31-1.81-.89-2.44-.97-.21-.4-.29-.48-.32-.97-1.05-14.79-.31-30.42-.32-45.46-.02-19.05-.09-38.18,0-57.31-1.49-.91-2.33.57-2.92.81-2.02.84-3.39,1.95-5.2,2.92-14.39,7.78-28.74,15.69-43.35,23.05l-1.14-2.27c8.71-4.65,17.31-9.57,25.98-14.29,5.38-2.93,11.28-5.45,16.23-8.93-1.38-.13-3.67,2.59-2.11-.49l16.07-8.28c-.75,19.19-.26,38.49,0,57.63Z"/><path class="f" d="M231.92,181.8c-1.46.66.33,3.23-2.92,1.95-.53-.97-1.23-.69-1.62-.97-.44-.31-.83-.69-1.3-.97-1.32-.79-4.55-2.52-5.84-2.27-.97-2-3.39-2.51-5.2-3.57-5.46-3.2-11.07-5.99-16.56-9.09-.58-.33-1.41-1.13-2.27-1.62.6-.69,1.05-.87,1.95-.97,3.91-.44,11.7,6.29,14.77,8.12.23.14,3.23,1.05,4.71,1.95s4.45,2.25,5.68,3.25c.26.21-.2,1.1-.16,1.14,1.72,1.74,2.61.13,2.76.16.85.16,1.09.46,2.44.65.62.09,1.83.66,2.44.97l.49-54.55c.25,16.82.36,41.4.65,55.85Z"/><path class="m" d="M235.17,136.34c.19-21.6,2.32-52.18.32-72.73-.07-.66-.74-2.53-.74-2.53,0,0,1.48-.86,2.37-1.37l-.97,127.61c-2.12.97-1.12-39.6-.97-50.98Z"/><path class="k" d="M138.08,196.08c-.11,10.86-1.37,26.05-.32,36.37.07.7-.27,1.44.49,1.95,10.26-6.17,20.62-12.23,31.01-18.18.96-.55,1.96-1.07,2.92-1.62l.97,2.6c-5.11,2.95-10.14,6.14-15.26,9.09-7.48,4.31-15.13,8.34-22.4,12.99-.34.01-.55.65-.97.16.77-7.13-1.04-16.52,0-23.38.01-.09,1.12.35,1.3-1.3s.51-3.51.65-5.2c.17-2.16-.42-12.09,0-12.99.29-.62,1.07-.5,1.62-.49Z"/><path class="r" d="M229,189.92c-.62.41-1.57.63-2.11.97-.8.51-.29,1.39-.65,1.62-.2.13-1.1-.13-1.3,0-2.4,1.57-4.79,2.15-5.84,4.55l-28.74,15.91c1.2-.91,2.25-1.53,2.92-2.76l-1.14-.16c-12.32,7.46-24.98,14.33-37.5,21.43v-.65c8.93-5.03,30.11-15.06,36.85-20.78,1.2-1.02,1.44-.84.81-2.6,1.84-1.05,3.67-2.19,5.52-3.25l.65,1.62c-.1.05-2.69,1.3-1.46,1.62l4.22-2.27-.49-.32c1.35-1.42,3.54-1.12,2.27-3.57,9.42-5.38,18.6-11.26,28.09-16.56,6.26,2.02.98,3.19-2.11,5.2Z"/><path class="k" d="M192.31,207.45c.63,1.76.39,1.58-.81,2.6-6.75,5.72-27.92,15.76-36.85,20.78-6.59,3.71-13.15,7.49-19.64,11.36-2.8-.36-.49-1.65.81-2.6,5.89-4.27,15.46-8.83,22.08-12.66,11.4-6.61,22.98-12.94,34.42-19.48Z"/><path class="r" d="M139.06,130.82c1.26,11.06-.48,24.46-.65,35.72h-.65c0-.43,0-.87,0-1.3s0-.87,0-1.3c0-.94-.31-2.37-.32-3.25-.08-6.77-.21-13.57-.32-19.81-.04-2.05.05-4.12,0-6.17l.65-5.68c1.36-.68,1.2.9,1.3,1.79Z"/><path class="s" d="M139.06,192.84c0,1.4-.32,3.08-.32,4.55,0,8.11.09,16.26,0,24.35-.02,1.61.04,3.27,0,4.87s.1,4.82-.97,5.84c-1.04-10.31.21-25.51.32-36.37.03-2.61.29-5.23.32-7.79.02-1.51-.02-3.04,0-4.55.25,2.89.65,6.22.65,9.09Z"/><path class="s" d="M157.89,226.93c-6.62,3.84-16.19,8.39-22.08,12.66-.38.06-.3-.33-.32-.32,7.28-4.65,14.93-8.68,22.4-12.99v.65Z"/><path class="u" d="M138.41,166.54c-.08,5.73.08,11.48,0,17.21-.02,1.51.02,3.04,0,4.55-.98.14-.63-.87-.65-1.46-.23-6.74.03-13.55,0-20.29h.65Z"/><path class="f" d="M137.76,163.94c0,.43,0,.87,0,1.3l-2.27-.16c-.56-.82,1.64-1.26,2.27-1.14Z"/><path class="q" d="M136.78,120.43c-.09,4.63.21,9.61.32,14.29.05,2.05-.04,4.12,0,6.17-.67-.1-1.25.4-1.62-.49-.81-1.9,1.12-8.37-.65-10.55.06-3.29-.04-6.6,0-9.9l.65-.81,17.37-9.09c.59.8-1.13,1.64-1.62,1.95-1.82,1.15-14.98,7.42-15.1,8.28-.04.25.65.13.65.16Z"/><path class="s" d="M219.91,79.84c-.57.45-1.32.95-1.95,1.3-2.17,1.18-4.33,2.38-6.49,3.57-1.18.65-2.39,1.3-3.57,1.95-.35.19-.75.52-.97.65-.61.33-1.31.63-1.95.97-3.36,1.83-6.72,3.66-10.07,5.52-1.18.66-2.39,1.28-3.57,1.95-4.48,2.52-9.17,4.76-13.64,7.31v47.08c4.6,2.44,9.14,5.02,13.64,7.63,1.16.67,2.4,1.27,3.57,1.95,3.58,2.06,7.39,4.28,10.72,6.17,1.8,1.02,3.76,1.92,5.52,2.92,1.97,1.13,3.82,2.45,5.84,3.57.32.18.91.94.97.97l-.32.97c-1.48-.9-4.48-1.81-4.71-1.95-3.08-1.83-10.87-8.56-14.77-8.12.53-.12-.41-1.88-.49-1.95-.1-.09-2.48-.58-2.6-.65-14.99-8.57-29.16-17.93-44.65-25.65l-9.58-5.84-1.79.65c-.1-.88.07-2.46-1.3-1.79l-.65,5.68c-.11-4.67-.41-9.66-.32-14.29,12.05-6.09,23.81-12.8,35.72-19.16.63-.34,1.96-.64,2.6-.97l1.14,2.27c14.61-7.36,28.95-15.27,43.35-23.05.37-.06.28.27.32.32Z"/><path class="k" d="M227.7,133.09l-2.6.16-.32-56.66c.59-.24,1.44-1.72,2.92-.81-.09,19.13-.02,38.26,0,57.31Z"/><path class="t" d="M226.08,181.8c.18,1.13-1.86,2.35-2.76,2.92-5.76,3.68-12.32,7-18.18,10.39-11.98,6.94-24.43,13.46-35.88,21.11-10.38,5.95-20.75,12.01-31.01,18.18-.76-.51-.42-1.25-.49-1.95,1.08-1.03.93-4.25.97-5.84,14.28-7.74,28.14-16.24,42.21-24.35,13.1-7.55,26.27-15.04,39.29-22.73,1.29-.25,4.53,1.49,5.84,2.27Z"/><path class="s" d="M193.28,163.61c.95.55,1.96,1.08,2.92,1.62.86.49,1.69,1.29,2.27,1.62.12.44-.86,1.15-1.14,1.3-9.24,5.09-18.28,10.39-27.44,15.59-3.18,1.8-6.55,3.4-9.74,5.2-.58-2.13,6.16-3.5,6.17-4.71,0-.1-1.23-1.44-1.46-1.46-.34-.03-5.63,4.13-5.68,2.44,1.29-1.82,13.93-6.03,8.12-6.98,8.71-4.71,16.91-10.51,25.98-14.61Z"/><path class="r" d="M215.04,175.95c1.81,1.06,4.22,1.57,5.2,3.57-13.02,7.69-26.18,15.18-39.29,22.73l19.64-12.01c.99-.54.31-2.6-.65-2.6l-30.03,16.56,27.11-15.59c1.11-.66.04-2.34-.97-2.27l-31.5,18.18c-.45-.61.91-1.36,1.3-1.62,7.29-4.95,17.6-10.22,25.49-14.61,3.23-1.8,6.29-3.87,9.58-5.52l.32.65,13.8-7.47Z"/><path class="t" d="M227.38,182.77c.39.28,1.1,0,1.62.97,1.24,2.27-3.42,2.73-3.73,2.92-14.82,9.1-29.85,17.89-44.97,26.63.75-1.38.42-1.55-.32-2.92,15.84-9.11,31.46-18.66,47.41-27.6Z"/><path class="n" d="M198.15,164.26c-.89.1-1.35.29-1.95.97-.96-.55-1.97-1.08-2.92-1.62-5.73-3.28-11.73-6.32-17.37-9.74-1.96-1.19-5.65-4.9-7.79-5.52-.07-.02-.37,1-.65.97-.23-.02-2.85-2.51-3.57-2.92-2.74-1.59-3.86-2.48-6.49-4.22-2.47-1.63-5.58-2.93-8.12-4.55l1.14-1.62c15.49,7.72,29.65,17.08,44.65,25.65.12.07,2.5.56,2.6.65.08.07,1.02,1.82.49,1.95Z"/><path class="r" d="M227.38,182.77c-15.94,8.94-31.57,18.49-47.41,27.6-1.31.75-2.6,1.53-3.9,2.27-1.2.69-2.67,1.24-3.9,1.95-.96.55-1.96,1.07-2.92,1.62,11.45-7.65,23.9-14.17,35.88-21.11,5.86-3.39,12.42-6.71,18.18-10.39.9-.57,2.94-1.8,2.76-2.92.47.28.86.66,1.3.97Z"/><path class="k" d="M179.97,210.37c.74,1.37,1.07,1.54.32,2.92-1.3.75-2.6,1.52-3.9,2.27.96-1.58,0-1.32-.32-2.92,1.29-.74,2.59-1.52,3.9-2.27Z"/><path class="t" d="M176.07,212.64c.32,1.6,1.28,1.34.32,2.92-1.02.59-2.24,1.04-3.25,1.62l-.97-2.6c1.23-.7,2.69-1.26,3.9-1.95Z"/><path class="t" d="M203.02,201.28c1.26,2.45-.93,2.15-2.27,3.57-.77.18-1.59.6-2.27.97l-.65-1.62c1.72-.99,3.48-1.94,5.2-2.92Z"/><path class="f" d="M200.75,204.85l.49.32-4.22,2.27c-1.23-.33,1.37-1.57,1.46-1.62.68-.37,1.5-.8,2.27-.97Z"/><path class="i" d="M150.42,136.02l-1.14,1.62c2.53,1.62,5.64,2.92,8.12,4.55,2.64,1.74,3.76,2.64,6.49,4.22.72.42,3.34,2.9,3.57,2.92.28.02.58-.99.65-.97,2.14.62,5.83,4.33,7.79,5.52,5.64,3.42,11.64,6.46,17.37,9.74-9.06,4.11-17.27,9.9-25.98,14.61-2.25,1.22-4.51,2.41-6.98,2.6l-21.27,12.01c0-2.87-.4-6.2-.65-9.09.08-5.73-.08-11.48,0-17.21.17-11.26,1.91-24.66.65-35.72l1.79-.65,9.58,5.84Z"/><path class="t" d="M169.9,183.75l.97,1.62c-7.53,3.92-14.82,9.19-22.4,13.15l22.24-11.85c.04.64,1.06,1.17,1.14,1.46.38,1.35-15.74,8.42-16.72,10.88,2.74-.65,18.75-11.79,19.81-11.36.24.1.18,1.72,1.14,1.79.11.99-15.06,8.84-17.05,10.23-.4.28-1.74,1-1.3,1.62,2.75-.82,18.99-11.91,20.13-11.69.99.19,1.02,1.89,0,2.92-2.13,2.15-9.82,4.71-12.34,6.82-.39.33-.92.96,0,.97,7.99-5.02,17.02-9.09,24.84-14.29l.97,2.27c-7.89,4.39-18.2,9.66-25.49,14.61-.39.26-1.75,1.01-1.3,1.62l31.5-18.18c1.02-.07,2.09,1.61.97,2.27l-27.11,15.59-31.17,17.53c.09-8.09,0-16.24,0-24.35,2.54-.28,12.11-7.39,13.48-7.47.38-.02.76.35,1.14.49l.32,1.3c-.21.86-5.39,2.98-6.33,3.73-.52.42-1.19.37-.65,1.3,4.58-2.43,8.96-5.26,13.48-7.79,3.19-1.79,6.56-3.39,9.74-5.2Z"/><path class="t" d="M180.94,202.25c-14.07,8.11-27.93,16.61-42.21,24.35.04-1.6-.02-3.26,0-4.87l31.17-17.53,30.03-16.56c.96,0,1.64,2.06.65,2.6l-19.64,12.01Z"/><path class="u" d="M167.31,178.23c5.81.95-6.83,5.17-8.12,6.98.05,1.69,5.34-2.47,5.68-2.44.23.02,1.46,1.36,1.46,1.46,0,1.21-6.75,2.58-6.17,4.71-4.51,2.53-8.89,5.36-13.48,7.79-.54-.93.12-.88.65-1.3.94-.76,6.12-2.88,6.33-3.73l-.32-1.3c-.38-.14-.76-.51-1.14-.49-1.36.08-10.93,7.19-13.48,7.47,0-1.47.33-3.14.32-4.55l21.27-12.01c2.47-.19,4.73-1.38,6.98-2.6Z"/><path class="r" d="M191.33,95.75v62.02c-4.5-2.61-9.04-5.19-13.64-7.63v-47.08c4.47-2.55,9.16-4.79,13.64-7.31Z"/><path class="t" d="M205.62,165.89c-3.32-1.89-7.14-4.1-10.72-6.17v-65.91c3.35-1.86,6.7-3.69,10.07-5.52l.65,77.6Z"/><path class="t" d="M217.96,81.14c-.03,16.18.15,32.48,0,48.7-.13,14.19-.51,28.36-.97,42.54-2.02-1.12-3.88-2.45-5.84-3.57l.32-84.1c2.16-1.19,4.32-2.39,6.49-3.57Z"/><path class="t" d="M211.14,168.81c-1.76-1.01-3.72-1.9-5.52-2.92l-.65-77.6c.64-.35,1.34-.64,1.95-.97l1.14,72.73-.16-73.38c1.18-.65,2.39-1.3,3.57-1.95l-.32,84.1Z"/><path class="u" d="M194.91,93.8v65.91c-1.17-.68-2.41-1.27-3.57-1.95v-62.02c1.18-.67,2.39-1.29,3.57-1.95Z"/><path class="p" d="M217.96,129.85c.15-16.23-.03-32.52,0-48.7.63-.34,1.38-.85,1.95-1.3.26.37.52.65.97.81l-.32,49.35-2.6-.16Z"/><path class="u" d="M206.92,87.31c.23-.12.62-.46.97-.65l.16,73.38-1.14-72.73Z"/><path class="t" d="M224.78,76.6l.32,56.66,2.6-.16c.02,15.03-.72,30.66.32,45.46l-2.92-1.46-.16-36.2-.49,34.91c-.92,1.51-1.64-.17-2.92-.65l-.16-26.14-.49,25.49c-.07.14-2.65-1-2.92-1.14-.06-.03-.65-.8-.97-.97.47-14.17.84-28.35.97-42.54l2.6.16.32-49.35c-.46-.16-.72-.44-.97-.81-.04-.06.05-.38-.32-.32,1.8-.97,3.17-2.08,5.2-2.92Z"/><path class="r" d="M228.02,178.55c.03.49.11.58.32.97-1.35-.19-1.59-.49-2.44-.65-.15-.03-1.04,1.57-2.76-.16-.04-.04.42-.93.16-1.14-1.24-1-4.14-2.31-5.68-3.25l.32-.97c.27.14,2.85,1.27,2.92,1.14l.49-25.49.16,26.14c1.28.48,2,2.15,2.92.65l.49-34.91.16,36.2,2.92,1.46Z"/><polygon class="k" points="223.97 77.57 224.45 128.06 221.69 128.22 221.53 79.36 223.97 77.57"/><path class="u" d="M190.36,186.02c-7.82,5.2-16.85,9.27-24.84,14.29-.92-.02-.39-.64,0-.97,2.52-2.11,10.21-4.67,12.34-6.82,1.02-1.03.99-2.73,0-2.92-1.14-.22-17.39,10.87-20.13,11.69-.44-.62.9-1.34,1.3-1.62,1.99-1.39,17.15-9.23,17.05-10.23-.96-.07-.9-1.69-1.14-1.79-1.06-.43-17.07,10.71-19.81,11.36.98-2.46,17.1-9.53,16.72-10.88-.08-.29-1.09-.82-1.14-1.46l-22.24,11.85c7.58-3.96,14.87-9.23,22.4-13.15.9-.47,4.28-2.47,4.71-2.6.07-.02.57.66.65.65,1.45-.26,1.62-2.23,3.08.81-.07.26-3.53,1.69-1.79,2.11.43.1,1.83-1.29,1.95-1.3.92-.05,1.5,1.64,2.27,1.62.65-.01,5.03-3.97,6.33-3.08l-2.92,1.95,1.14,2.11c.71-.66,5.92-3.84,6.33-3.08-.55.83-1.53.96-2.27,1.46Z"/><path class="r" d="M215.04,175.95l-13.8,7.47-.32-.65c-3.29,1.65-6.35,3.72-9.58,5.52l-.97-2.27c.75-.5,1.72-.64,2.27-1.46-.41-.75-5.62,2.42-6.33,3.08l-1.14-2.11,2.92-1.95c-1.3-.88-5.68,3.07-6.33,3.08-.78.02-1.35-1.68-2.27-1.62-.12,0-1.52,1.4-1.95,1.3-1.74-.42,1.72-1.85,1.79-2.11-1.47-3.05-1.64-1.07-3.08-.81-.08.01-.58-.67-.65-.65-.43.13-3.81,2.13-4.71,2.6l-.97-1.62c9.16-5.2,18.2-10.49,27.44-15.59.28-.15,1.26-.86,1.14-1.3,5.49,3.1,11.1,5.9,16.56,9.09Z"/><path class="u" d="M183.38,179.2c2.92.63-2.91,6.91-3.41,2.11.58-.15,3.21-2.15,3.41-2.11Z"/><path class="l" d="M114.38,109.71c2.28,1.22,10.95,5.06,12.18,6.17.54.48.97.79.81,1.62v57.47c0,3.37.32,6.71.32,10.07-2.15.87.02,4.56-1.79,5.52l-.16-7.63c-.11-.22-1.9.24-1.95.32-.81,1.36-.03,27.71,0,31.66-.31.04-.68-.07-.97,0-.21-29.24.17-58.44-.32-87.67-.02-1.45.9-9.82-1.46-8.44-.51.72.75,1.06.81,1.62l-1.3,27.76-3.25.16c.08-5.31-.62-20.86.32-24.68.22-.91,2.31-2.77,1.79-3.57-4.66-2.06-9.01-4.74-13.48-7.14,2.12-.57,7.55,4.12,8.93,4.22.33.02.93-.28.65-.65-6.93-3.48-13.55-7.54-20.29-11.36,4.4,1.43,25.76,13.92,27.44,13.64.11-.02,1.8-1.2,1.79-1.46-.06-1.25-9.1-4.83-9.9-5.68-.65-.69-.11-1.2-.16-1.95Z"/><path class="r" d="M58.21,80.49c-1.53-.12-3.6-1.68-3.57,1.3-9.69-5.35-19.67-10.6-29.55-15.59-.94-.47-1.82-.6-2.44-1.62-.76,27.05-.49,54.59-.49,81.82v10.39c-.18-2.94.57-7.56-3.25-6.49-.11-30.03.08-60.07,0-90.1l39.29,20.29Z"/><path class="s" d="M58.21,86.01c.52.37,1.15,1.78,2.6,1.3,1.43.57,6.53,3.62,5.36.97-3.16-1.98-6.67-3.4-9.9-5.2-.24-.13-1.15-1.04-1.62-1.3-.02-2.98,2.04-1.42,3.57-1.3,18.34,9.41,36.68,18.88,54.87,28.57l-2.44.32-26.3-13.96-1.14,2.92c-3.67-1.95-7.23-3.84-11.04-5.52-.1-.08-1.51-2.33-1.62-.81-.03.42,1.35.69,1.62.81,4.24,3.19,10.16,5.4,14.77,8.12.61.95-1,.45-1.14,1.14-.12.58,8.82,5.33,10.07,6.01l-1.3,2.27c-6.74-3.36-14.29-8.17-20.94-11.04-.39-.17-1.29-.67-1.46,0-3.72-1.87-7.4-3.83-11.04-5.84-2.24-1.24-4.6-2.33-6.82-3.57-1.18-.66-2.4-1.29-3.57-1.95-.75-.42-1.52-.87-2.27-1.3-2.22-1.26-4.48-3.04-6.49-4.22.81-.58.39.1,1.3.65,6.23,3.75,13.08,6.71,19.32,10.39.53-2.48,1.65-2.22-.65-3.9-4.33-3.15-12.95-6.92-18.02-9.74-2.41-1.34-4.79-2.76-7.31-3.9v-.65c5.26,2.26,10.11,5.63,15.26,8.12,2.07,1,4.27,1.71,6.33,2.6Z"/><path class="s" d="M127.37,198.03c.01,12.31-.11,26.32,0,37.5.02,1.78-.23,12.38,0,12.99.38,1,1.12,1.52,1.95,1.79v.97s-1.34-.78-2.27-1.3c-1.37-.78-2.42-1.42-3.9-2.27-2.26-1.17-4.6-2.34-6.82-3.57-1.63-.91-3.26-2.34-4.87-3.25,1.05-.54-3.33-3.66.16-2.27.6.24,6.79,4.29,8.28,5.2-.06,1.5,2.66,2,3.41,2.92,1.09-1.32-.86-1.32-1.79-1.95,4.65-.65-3.24-2.33-1.62-3.9,1.09.5,4.37,2.28,4.55,1.3.19-1.07-2.59-2.59-3.57-3.25.83-.41.89-.17.97-1.14.47-5.53-.26-14.59-.32-20.62.86-1.05-.43-1.88,1.3-2.27.3-.07.66.04.97,0,.02,3.84-.02,7.69,0,11.53l.65-.32c.55-3.05-.72-23.98,0-25,.27-.38,1.62.04,1.62-.32-2.23,1.31-1.83-5.75-1.62-6.17,1.68-3.31,1.2,4.14,2.92,3.41Z"/><path class="s" d="M22.17,156.8c.1,1.6-.04,3.26,0,4.87.19,6.97-.15,13.97.32,20.94l1.3.81c0,.64.25,1.07.32,1.62.04.31-.49.58-.65.81l.49.49c5.63,2.86,10.94,6.28,16.4,9.42l-.65.81c.5.5,3.14,1.55,3.25,1.95.18.66-1.06.32-.49,1.14.86,1.24,14.75,7.43,14.77,8.28l-1.3,1.14c-12.31-7.12-24.95-13.72-37.02-21.27-.03-12.5.04-25.01,0-37.5,3.82-1.06,3.07,3.56,3.25,6.49Z"/><path class="n" d="M113.08,109.07c.42.23.87.42,1.3.65.05.74-.48,1.26.16,1.95.8.85,9.85,4.44,9.9,5.68.01.26-1.67,1.44-1.79,1.46-1.67.28-23.04-12.21-27.44-13.64-.07-.04-.51-.53-1.3-.97-3.55-2-7.12-3.93-10.72-5.84l1.14-2.92,26.3,13.96,2.44-.32Z"/><path class="n" d="M127.69,185.04c0,4.37-.33,8.36-.32,12.99-1.72.73-1.25-6.72-2.92-3.41-.21.41-.61,7.48,1.62,6.17,0,.37-1.35-.06-1.62.32-.72,1.02.55,21.95,0,25l-.65.32c-.02-3.84.02-7.69,0-11.53s-.81-30.3,0-31.66c.05-.08,1.83-.54,1.95-.32l.16,7.63c1.81-.96-.36-4.65,1.79-5.52Z"/><path class="n" d="M127.37,117.51c.03,19.15-.04,38.32,0,57.47v-57.47Z"/><path class="j" d="M72.17,99.32l45.46,24.35c-.94,3.81-.24,19.37-.32,24.68-.14,9.29.06,18.62,0,27.92-.06,9.39-.57,18.85-.32,28.25-1,2.66-.29,4.22-.49,6.82-.21.17-3.62-3.44-4.71-2.27-11.28-7-23.48-13.57-35.07-20.13-9.78-5.54-19.68-10.95-29.22-16.88l34.26-19.81c.22-.5-2.5-.78-.16-1.79l-.81-.49c-8.57,5.5-17.62,10.23-26.46,15.26-1.61.91-3.27,1.69-4.87,2.6-.05-.15-.6-.65-.65-.65.51-.4,1.08-.98,1.62-1.3,1.29-.76,2.6-1.52,3.9-2.27.91-.53,6.31-3.25,6.49-3.73l.32-66.4c3.64,2.01,7.32,3.97,11.04,5.84Z"/><path class="l" d="M121.85,120.43c.21,1.99-.69,5.34.65,6.82.49,29.23.11,58.43.32,87.67-1.73.39-.44,1.23-1.3,2.27-.08-7.35-.23-14.72-.32-22.08-.04-2.91.37-23.2-.32-24.19-.48-.67-2.03.68-2.27-.65-.39,2.11-.3,4.21-.32,6.33l-.97-.32c.06-9.3-.14-18.63,0-27.92l3.25-.16,1.3-27.76Z"/><path class="n" d="M94.57,110.36c2.47,1.23,4.95,2.43,7.31,3.9l1.46-2.27c.63.34,1.97.64,2.6.97,4.47,2.4,8.82,5.08,13.48,7.14.52.8-1.56,2.67-1.79,3.57l-45.46-24.35c.17-.67,1.07-.17,1.46,0,6.65,2.87,14.21,7.68,20.94,11.04Z"/><path class="l" d="M83.21,98.35c3.6,1.91,7.16,3.85,10.72,5.84-1.04.81.89.84,1.3.97,6.74,3.83,13.36,7.88,20.29,11.36.28.37-.31.67-.65.65-1.38-.1-6.81-4.79-8.93-4.22-.63-.34-1.97-.64-2.6-.97-2.47-1.32-5.02-2.57-7.47-3.9-1.24-.67-10.18-5.43-10.07-6.01.14-.69,1.74-.19,1.14-1.14-4.61-2.71-10.54-4.92-14.77-8.12,3.81,1.68,7.37,3.57,11.04,5.52Z"/><path class="o" d="M122.5,127.25c-1.34-1.48-.44-4.83-.65-6.82-.06-.57-1.32-.9-.81-1.62,2.36-1.38,1.44,7,1.46,8.44Z"/><path class="k" d="M25.09,66.21l-.97,1.3c0,13.52,0,27.06,0,40.59-.01,14.39-.03,28.8,0,43.19,0,2.27,0,4.55,0,6.82-.98.14-.63-.87-.65-1.46-.09-2.6.45-7.19,0-9.42-.23-1.15-.11-.81-1.3-.81,0-27.24-.27-54.77.49-81.82.62,1.02,1.5,1.15,2.44,1.62Z"/><path class="u" d="M54.64,81.79c.47.26,1.38,1.17,1.62,1.3l-.97.97c-6.05-3.53-12.14-6.3-18.02-9.42-.14-.08-.83-1.55-.97-1.62-1.01-.53-1.22.36-1.3.32-3.27-1.72-6.78-4.21-10.23-5.52-.27-.1-.39-.29-.65-.32l.97-1.3c9.88,4.98,19.86,10.24,29.55,15.59Z"/><path class="u" d="M24.11,158.09c0,1.73,0,3.47,0,5.2-1.4-.06.27-2.09-1.95-1.62-.04-1.61.1-3.27,0-4.87v-10.39c1.18,0,1.07-.34,1.3.81.45,2.23-.09,6.82,0,9.42.02.59-.33,1.6.65,1.46Z"/><path class="u" d="M61.13,93.48l-.32,66.4c-.18.48-5.58,3.2-6.49,3.73v-73.71c2.21,1.24,4.58,2.33,6.82,3.57Z"/><path class="k" d="M55.28,84.06c1.02.6,1.96,1.26,2.92,1.95-2.06-.89-4.26-1.6-6.33-2.6-5.15-2.49-10-5.86-15.26-8.12v.65c2.52,1.13,4.9,2.56,7.31,3.9-.4,1.34-1.41,1.71-.65,3.25-.9-.54-.49-1.23-1.3-.65-1.14-.67-12.38-7.46-12.66-6.66l1.3.97v58.12l-2.11.16-.16-59.26-.97.65v68.67c-.23-2.64.55-8-2.6-6.82-.03-10.06,0-20.14,0-30.2v-40.26c3.45,1.31,6.95,3.8,10.23,5.52.08.04.29-.86,1.3-.32.14.07.83,1.55.97,1.62,5.88,3.12,11.97,5.89,18.02,9.42Z"/><path class="u" d="M54.31,89.91v73.71c-1.29.76-2.6,1.52-3.9,2.27l.32-77.93c1.17.66,2.39,1.29,3.57,1.95Z"/><path class="t" d="M50.74,87.96l-.32,77.93c-.55.32-1.11.9-1.62,1.3-.2-.02-.49-.04-.65,0l.32-80.53c.76.43,1.52.87,2.27,1.3Z"/><path class="t" d="M43.27,83.09c-.76-1.53.25-1.91.65-3.25,5.07,2.82,13.69,6.59,18.02,9.74,2.3,1.67,1.18,1.42.65,3.9-6.24-3.68-13.09-6.64-19.32-10.39Z"/><path class="q" d="M103.34,111.99l-1.46,2.27c-2.36-1.46-4.84-2.67-7.31-3.9l1.3-2.27c2.45,1.33,5,2.57,7.47,3.9Z"/><path class="r" d="M56.26,83.09c3.23,1.8,6.75,3.22,9.9,5.2,1.17,2.65-3.92-.4-5.36-.97-.72-.29-1.7-.91-2.6-1.3-.97-.69-1.9-1.35-2.92-1.95l.97-.97Z"/><path class="k" d="M60.8,87.31c-1.45.48-2.08-.93-2.6-1.3.9.39,1.88,1.01,2.6,1.3Z"/><path class="l" d="M72.17,92.83c-.28-.12-1.65-.4-1.62-.81.11-1.52,1.52.73,1.62.81Z"/><path class="u" d="M124.45,242.19c-.17.98-3.46-.8-4.55-1.3-1.83-.84-3.43-1.98-5.2-2.92-.77-.41-1.51-.88-2.27-1.3-11.56-6.32-22.74-13.35-34.42-19.48-.29-.37-.89-.72-1.3-.97-11.59-7.32-24.45-13.61-36.37-20.46-5.46-3.14-10.77-6.56-16.4-9.42l-.49-.49c.16-.23.69-.5.65-.81l100.33,57.15Z"/><path class="l" d="M121.52,244.79c.93.63,2.87.63,1.79,1.95-.75-.92-3.46-1.43-3.41-2.92.56.34,1.06.59,1.62.97Z"/><path class="r" d="M76.71,216.22c-.07.91-1.87.12-2.11,0-3.11-1.51-7.21-5.04-10.39-6.17-.17-.06-2.37,0-3.25-.65l-.32.65,26.63,15.26c.28.1.76-.31.81-.49.58-1.9-8.92-5.94-10.39-7.14l.32-.49c11.67,6.13,22.86,13.16,34.42,19.48l.16,1.95,2.11-.65c1.76.94,3.37,2.08,5.2,2.92-1.62,1.56,6.27,3.25,1.62,3.9-.56-.38-1.06-.63-1.62-.97-1.49-.91-7.68-4.96-8.28-5.2-3.49-1.39.89,1.73-.16,2.27-5.06-2.85-10.21-5.57-15.26-8.44-13.48-7.67-26.84-15.61-40.26-23.38l1.3-1.14c-.02-.85-13.91-7.04-14.77-8.28-.57-.82.67-.47.49-1.14-.11-.4-2.75-1.45-3.25-1.95l.65-.81c11.91,6.85,24.78,13.14,36.37,20.46Z"/><path class="r" d="M76.71,216.22c.41.26,1.01.6,1.3.97l-.32.49c1.47,1.2,10.98,5.24,10.39,7.14-.05.18-.53.59-.81.49l-26.63-15.26.32-.65c.88.64,3.08.59,3.25.65,3.18,1.13,7.28,4.66,10.39,6.17.24.12,2.04.91,2.11,0Z"/><path class="s" d="M96.68,230.83l4.06,2.11c-.91.77-3.47-1.26-4.06-2.11Z"/><path class="s" d="M114.7,237.97l-2.11.65-.16-1.95c.77.42,1.5.89,2.27,1.3Z"/><path class="t" d="M121.52,217.19c.06,6.02.8,15.09.32,20.62-.08.97-.14.73-.97,1.14-9.46-6.33-21.45-12.07-31.5-17.86-.64-1.18.8-1.69.97-2.92,9.27,5.26,18.56,10.52,27.76,15.91,1.42-.13.47-3.75.49-4.87.1-9.08.02-18.19,0-27.27,4.2.99,1.26-4.37,2.6-6.82.09,7.36.25,14.73.32,22.08Z"/><path class="n" d="M24.76,151.28c.04,9.9-.65,20.38.32,30.2.01.11-.61,1.29-.32,2.11.34.48.88.76,1.3,1.14,1.96,1.74,10.29,6.11,13.15,7.79,10.21,6.01,20.74,11.62,31.01,17.53l19.16,11.04c10.04,5.79,22.03,11.53,31.5,17.86.99.66,3.76,2.17,3.57,3.25l-100.33-57.15c-.07-.55-.33-.99-.32-1.62.05-6.69.34-13.42.32-20.13,0-1.73,0-3.47,0-5.2,0-2.27,0-4.55,0-6.82h.65Z"/><path class="r" d="M24.11,163.29c.01,6.72-.28,13.44-.32,20.13l-1.3-.81c-.47-6.97-.14-13.97-.32-20.94,2.22-.47.55,1.56,1.95,1.62Z"/><path class="e" d="M95.22,105.17c-.41-.13-2.34-.17-1.3-.97.78.44,1.23.93,1.3.97Z"/><path class="s" d="M76.71,188.94l-.97,2.11c.89.31,1.5,1.05,2.11,1.46,7.85,5.24,29.01,17.58,37.34,20.78.15.06.3.94.65.97.76.07,1.17-2,1.14-2.11-.1-.29-4.48-2.64-5.2-3.08,1.09-1.17,4.49,2.44,4.71,2.27.2-2.6-.51-4.16.49-6.82.03,1.03.1,2.04,0,3.08l.97-1.3c-.18,2.61.19,5.56,0,8.12,0,.1-.96,1.68-.97,1.79-2.53-2.17-6.02-4.18-8.93-5.84-9.28-5.33-18.79-10.3-28.09-15.59-12-6.82-23.73-14.18-36.04-20.46.6-.31,2.68-2.23,3.25-2.27.11,0,.22,0,.32,0,9.54,5.94,19.44,11.34,29.22,16.88Z"/><path class="u" d="M111.78,209.07c.72.45,5.1,2.8,5.2,3.08.04.11-.37,2.18-1.14,2.11-.35-.03-.5-.92-.65-.97-8.33-3.2-29.49-15.54-37.34-20.78-.61-.41-1.22-1.15-2.11-1.46l.97-2.11c11.59,6.56,23.79,13.13,35.07,20.13Z"/><path class="q" d="M47.49,172.06c-.11,0-.22,0-.32,0-.56,0-1.15-.13-.65-.81.63-.85,6.88-3.56,8.28-4.71,1.17-.96-.82-.3-.49-1.3,8.84-5.03,17.89-9.76,26.46-15.26l.81.49c-2.34,1.01.39,1.29.16,1.79l-34.26,19.81Z"/><path class="f" d="M47.17,172.06c-.56.04-2.64,1.96-3.25,2.27-2.01,1.04-4.36,1.68-5.84,3.57-1.36-.07-5.14,2.8-6.49,3.57-.3.17-1.32.48-1.62.65-.54.3-1.08.67-1.62.97-.78.44-1.77.82-2.27,1.62-.42-.37-.96-.66-1.3-1.14-.29-.82.34-2,.32-2.11h.32c8.37-3.75,16.05-9.08,24.03-13.64,1.6-.91,3.26-1.68,4.87-2.6-.33,1,1.66.34.49,1.3-1.4,1.14-7.65,3.85-8.28,4.71-.5.68.09.82.65.81Z"/><path class="f" d="M118.28,176.6c-.1,8.4.31,16.9.32,25.33.02,9.08.1,18.19,0,27.27h-1.62c0-1.12.16-1.34,0-2.6,2.05-.93.16-2.26,0-3.08-.04-.19,1.62-2.74.97-3.57l-.97.65c0-.92,0-1.84,0-2.76,0-.53-.06-1.1,0-1.62.01-.1.97-1.68.97-1.79.19-2.56-.18-5.51,0-8.12l-.97,1.3c.1-1.04.03-2.06,0-3.08-.24-9.4.26-18.85.32-28.25l.97.32Z"/><path class="s" d="M121.2,195.11c-1.34,2.45,1.61,7.81-2.6,6.82-.02-8.42-.42-16.93-.32-25.33.03-2.13-.06-4.22.32-6.33.24,1.33,1.8-.02,2.27.65.7.99.29,21.28.32,24.19Z"/><path class="s" d="M24.76,108.09c0,10.06-.03,20.14,0,30.2.01,4.32-.02,8.66,0,12.99h-.65c-.03-14.39-.01-28.8,0-43.19h.65Z"/><path class="r" d="M24.76,67.83v40.26h-.65c0-13.52,0-27.06,0-40.59.26.03.38.22.65.32Z"/><path class="t" d="M41.97,82.44c2.02,1.18,4.27,2.96,6.49,4.22l-.32,80.53c-1.04.28-6.02,4.33-6.82,3.73l-.81-12.83c-.96,2.13.59,12.43.16,13.48-.18.44-2.33,1.93-2.6.97l-.49-17.7.16,18.35c-.35.45-2.83,2.37-3.25,1.62l-.81-24.51.16,25.49-2.6,1.3-.49-34.58-.16,34.91-2.11,1.46-.81-24.35c-.07-3.2-.05-6.22-.32-9.42v-68.67l.97-.65.16,59.26,2.11-.16v-58.12l-1.3-.97c.29-.8,11.52,5.99,12.66,6.66Z"/><path class="r" d="M48.14,167.19c.16-.04.45-.02.65,0,.05,0,.6.5.65.65-7.98,4.56-15.66,9.89-24.03,13.64l2.27-2.11c-.36-8.3.18-16.58,0-24.84l.81,24.35,2.11-1.46.16-34.91.49,34.58,2.6-1.3-.16-25.49.81,24.51c.41.74,2.9-1.17,3.25-1.62l-.16-18.35.49,17.7c.27.95,2.42-.54,2.6-.97.43-1.04-1.12-11.35-.16-13.48l.81,12.83c.8.6,5.77-3.45,6.82-3.73Z"/><polygon class="k" points="31.42 77.24 33.85 78.71 33.69 128.87 30.93 128.71 31.42 77.24"/><polygon class="k" points="34.67 79.19 37.43 80.65 36.94 126.27 34.5 126.11 34.67 79.19"/><path class="t" d="M27.36,145.11c.28,3.2.25,6.22.32,9.42.18,8.26-.36,16.54,0,24.84l-2.27,2.11h-.32c-.98-9.82-.28-20.3-.32-30.2-.02-4.32.01-8.66,0-12.99,3.14-1.19,2.37,4.18,2.6,6.82Z"/><path class="s" d="M116.98,229.85v-.65h1.62c-.01,1.13.94,4.74-.49,4.87-9.2-5.39-18.49-10.65-27.76-15.91-6.36-3.6-12.82-7.09-19.16-10.72-14.24-8.14-28.2-17.04-42.86-24.35.54-.31,1.08-.67,1.62-.97l87.51,50.98c1.73-.7.72-2.4-.49-3.25Z"/><path class="t" d="M90.35,218.16c-.17,1.24-1.61,1.74-.97,2.92l-19.16-11.04c-.51-1.01.68-1.46.97-2.6,6.34,3.62,12.8,7.11,19.16,10.72Z"/><path class="t" d="M71.19,207.45c-.3,1.13-1.48,1.59-.97,2.6-10.27-5.92-20.8-11.53-31.01-17.53-2.86-1.68-11.19-6.05-13.15-7.79.5-.8,1.49-1.18,2.27-1.62,14.66,7.31,28.62,16.21,42.86,24.35Z"/><path class="u" d="M116.98,216.22c-.06.52,0,1.1,0,1.62-1.82-.21-4.4-1.68-6.01-2.6-3.96-2.25-30.05-16.46-31.17-17.86-.71-.88-.85-1.87.16-2.6,9.29,5.29,18.81,10.26,28.09,15.59,2.91,1.67,6.4,3.67,8.93,5.84Z"/><path class="t" d="M31.58,181.47c9.39,4.84,18.43,10.35,27.6,15.59,19.23,10.98,38.5,21.93,57.8,32.79,1.21.85,2.22,2.55.49,3.25l-87.51-50.98c.31-.17,1.32-.48,1.62-.65Z"/><path class="u" d="M38.08,177.9c8.45,4.34,16.42,9.63,24.68,14.29l-1.62,1.62c-3.37-1.87-6.64-4.03-10.23-5.52l8.93,5.84-.65,2.92c-9.17-5.23-18.21-10.74-27.6-15.59,1.35-.77,5.14-3.64,6.49-3.57Z"/><path class="u" d="M116.98,226.61c.16,1.26,0,1.48,0,2.6v.65c-19.3-10.86-38.56-21.82-57.8-32.79l.65-2.92,51.46,28.9-.16-.81c-16.84-9.19-33.28-19.15-50-28.41l1.62-1.62c17.82,10.04,35.72,19.93,53.41,30.2,1.42,1.7-.18,3.07-.16,3.41s.92.4.97.81Z"/><path class="r" d="M43.92,174.33c12.31,6.28,24.04,13.63,36.04,20.46-1.02.72-.87,1.72-.16,2.6,1.13,1.4,27.22,15.61,31.17,17.86,1.61.92,4.18,2.39,6.01,2.6,0,.92,0,1.84,0,2.76l.97-.65c.65.83-1.01,3.38-.97,3.57.16.82,2.05,2.15,0,3.08-.05-.41-.96-.46-.97-.81s1.58-1.71.16-3.41c-17.69-10.27-35.59-20.16-53.41-30.2-8.26-4.65-16.23-9.95-24.68-14.29,1.49-1.89,3.84-2.53,5.84-3.57Z"/><path class="u" d="M74.6,195.11l42.05,24.51c.13,1.66.13,1.99-1.46,1.46-4.53-1.51-14.55-9.06-19.16-11.69-5.51-3.15-16.21-7.69-21.43-11.69-1.6-1.22-.93-.88,0-2.6Z"/><path class="r" d="M61.13,193.81c16.72,9.26,33.17,19.22,50,28.41l.16.81-51.46-28.9-8.93-5.84c3.59,1.49,6.86,3.65,10.23,5.52Z"/><path class="h" d="M74.15,126.08v-.29c0-28.67,23.11-51.93,53.92-51.93s53.64,22.97,53.64,51.64v.29c0,28.67-23.11,51.93-53.92,51.93s-53.64-22.97-53.64-51.64ZM153.46,126.08v-.29c0-14.41-10.41-26.96-25.68-26.96s-25.25,12.27-25.25,26.68v.29c0,14.41,10.41,26.96,25.54,26.96s25.39-12.27,25.39-26.68Z"/></svg>