<?xml version="1.0" encoding="UTF-8" standalone="no"?>
<!DOCTYPE svg PUBLIC "-//W3C//DTD SVG 1.1//EN" "http://www.w3.org/Graphics/SVG/1.1/DTD/svg11.dtd">
<svg width="100%" height="100%" viewBox="0 0 1080 1080" version="1.1" xmlns="http://www.w3.org/2000/svg" xmlns:xlink="http://www.w3.org/1999/xlink" xml:space="preserve" xmlns:serif="http://www.serif.com/" style="fill-rule:evenodd;clip-rule:evenodd;stroke-linejoin:round;stroke-miterlimit:2;">
    <g id="phoenix" transform="matrix(2.09275,0,0,2.09275,-14.5787,-10.3932)">
        <g transform="matrix(0,1,1,0,265,8.789)">
            <path d="M254.211,-254.211C113.814,-254.211 0,-140.397 0,0C0,140.397 113.814,254.211 254.211,254.211C394.608,254.211 508.422,140.397 508.422,0C508.422,-140.397 394.608,-254.211 254.211,-254.211" style="fill:rgb(189,31,44);fill-rule:nonzero;"/>
        </g>
        <g transform="matrix(0,1,1,0,265,15.9175)">
            <path d="M247.083,-247.083C110.623,-247.083 -0,-136.46 -0,0C-0,136.46 110.623,247.083 247.083,247.083C383.543,247.083 494.166,136.46 494.166,0C494.166,-136.46 383.543,-247.083 247.083,-247.083" style="fill:rgb(225,117,81);fill-rule:nonzero;"/>
        </g>
        <g transform="matrix(0,1,1,0,265.454,23.4311)">
            <path d="M239.734,-239.734C107.333,-239.734 0,-132.401 0,0C0,132.401 107.333,239.734 239.734,239.734C372.135,239.734 479.468,132.401 479.468,0C479.468,-132.401 372.135,-239.734 239.734,-239.734" style="fill:rgb(35,31,32);fill-rule:nonzero;"/>
        </g>
        <g transform="matrix(1,0,0,1,150.824,454.891)">
            <path d="M0,-348.441C21.482,-372.028 44.936,-383.478 66.527,-388.419C96.238,-395.217 75.21,-389.712 50.073,-373.561C35.57,-364.243 23.581,-353.779 14.756,-338.811C1.764,-316.776 -0.733,-282.35 2.172,-258.395C2.597,-254.896 3.135,-255.468 4.39,-258.545C5.577,-261.455 9.048,-265.761 10.999,-268.721C15.045,-274.859 5.88,-239.932 18.444,-219.951C25.21,-209.191 39.153,-198.923 48.19,-190.405C51.403,-187.377 69.046,-167.08 70.666,-167.071C73.106,-167.057 88.423,-182.564 89.61,-185.957C97.426,-208.296 85.177,-224.355 84.931,-233.121C84.628,-243.91 92.397,-236.728 99.793,-236.644C111.796,-236.508 123.197,-229.536 128.348,-219.563C134.215,-208.201 130.015,-199.618 142.258,-191.473C144.037,-190.289 148.632,-188.519 149.032,-188.348C151.481,-187.303 150.243,-186.477 148.755,-185.803C145.875,-184.498 138.863,-181.243 135.994,-180.573C130.13,-179.203 127.172,-180.907 121.681,-176.886C115.029,-172.013 111.737,-163.485 112.193,-155.406C112.377,-152.147 117.194,-131.332 119.676,-133.911C121.752,-136.068 123.651,-145.026 129.007,-156.56C139.408,-178.957 168.924,-183.27 189.535,-194.032C241.18,-221 297.137,-253.153 277.353,-321.859C273.628,-334.798 269.776,-345.859 266.556,-353.703C265.731,-355.714 273.162,-348.997 286.007,-332.222C310.041,-300.836 310.146,-263.886 298.449,-228.868C296.678,-223.567 298.284,-225.937 299.935,-228.373C302.005,-231.425 306.271,-237.975 307.698,-240.869C315.74,-257.18 320.536,-273.228 318.059,-291.834C316.495,-303.579 316.077,-302.843 321.898,-286.313C327.007,-271.804 331.368,-249.891 330.215,-234.352C328.133,-206.305 305.79,-181.791 283.181,-167.386C280.111,-165.431 284.539,-166.134 287.181,-167.29C301.641,-173.616 313.77,-180.601 322.991,-193.576C324.637,-195.892 329.247,-204.139 330.676,-206.901C331.812,-209.097 330.21,-192.891 327.897,-184.67C319.068,-153.3 298.723,-146.155 274.859,-128.708C267.134,-123.06 261.609,-118.322 254.123,-112.735C250.099,-109.732 248.343,-108.304 252.362,-109.955C252.362,-109.955 259.214,-113.216 264.852,-115.715C289.476,-126.627 306.111,-138.363 313.201,-144.655C317.109,-148.123 319.081,-150.658 317.054,-145.288C310.614,-128.224 304.194,-111.553 293.005,-97.562C283.654,-85.871 269.573,-78.846 255.692,-73.875C250.903,-72.16 233.253,-68.408 230.756,-66.352C228.089,-64.155 228.848,-41.854 227.732,-35.835C220.132,5.152 170.526,0.739 142.047,19.48C133.628,25.02 124.645,36.769 128.547,47.629C128.547,47.629 119.096,48.214 113.006,48.008C112.531,46.625 111.161,41.468 109.211,39.573C99.665,30.301 74.866,25.122 61.819,18.966C33.881,5.782 18.479,-23.767 7.827,-41.327C3.504,-48.454 5.57,-47.024 12.286,-45.4C25.818,-42.128 35.572,-41.792 48.439,-36.654C72.152,-27.185 64.655,-15.82 74.765,1.02C77.747,5.988 94.455,23.144 99.729,24.065C100.974,24.282 102.942,24.501 102.167,22.623C101.449,20.882 90.53,10.808 88.198,7.587C75.698,-9.679 87.869,-25.867 73.186,-38.401C45.126,-62.352 -6.124,-48.994 -32.638,-86.577C-48.183,-108.612 -70.741,-175.465 -61.823,-164.979C-44.496,-144.603 -28.073,-127.836 -3.507,-117.708C-0.101,-116.304 12.623,-110.74 7.28,-115.095C1.831,-119.536 3.414,-127.058 -1.294,-130.921C-3.857,-133.023 -10.003,-134.72 -13.495,-136.72C-43.708,-154.021 -53.87,-167.556 -70.996,-197.219C-80.768,-214.144 -88.85,-230.776 -97.314,-248.381C-99.898,-253.757 -90.768,-248.354 -89.465,-247.75C-70.195,-238.814 -70.974,-231.375 -60.845,-215.37C-57.369,-209.878 -53.48,-204.761 -49.345,-199.749C-45.258,-194.795 -56.148,-224.564 -59.151,-237.064C-63.769,-256.288 -64.734,-275.032 -71.84,-293.534C-73.651,-298.25 -76.027,-301.918 -76.299,-302.342C-80.042,-308.176 -70.964,-301.818 -65.432,-293.189C-62.057,-287.925 -56.761,-275.611 -55.923,-269.698C-54.932,-262.708 -53.831,-283.57 -45.849,-303.416C-42.369,-312.07 -21.675,-350.924 -27.037,-365.478C-28.931,-370.617 -28.843,-372.109 -27.01,-369.937C-11.115,-351.097 -25.468,-314.586 -27.299,-291.648C-31.537,-238.529 -21.82,-324.482 0,-348.441" style="fill:rgb(188,32,44);fill-rule:nonzero;"/>
        </g>
        <g transform="matrix(1,0,0,1,251,246.632)">
            <path d="M0,-28.632C1.328,-26.465 2.033,-22.481 2.92,-21.288C3.615,-20.353 5.764,-20.363 7.08,-19.233C11.217,-15.682 9.431,-9.038 10.238,-4.37C10.658,-1.939 15.746,9.602 14.995,10.363C14.045,11.325 6.433,7.82 4.966,6.902C-14.13,-5.039 -7.355,-21.566 -19.319,-30.917C-22.087,-33.082 -27.65,-32.398 -30.994,-31.641C-30.499,-33.013 -27.321,-34.585 -26.035,-35.168C-15.46,-39.957 -6.341,-38.974 0,-28.632" style="fill:rgb(234,179,59);fill-rule:nonzero;"/>
        </g>
        <g transform="matrix(0,-1,-1,0,267.141,229.741)">
            <path d="M-4.149,-4.149C-6.44,-4.149 -8.298,-2.291 -8.298,0C-8.298,2.292 -6.44,4.149 -4.149,4.149C-1.858,4.149 0,2.292 0,0C0,-2.291 -1.858,-4.149 -4.149,-4.149" style="fill:rgb(35,31,32);fill-rule:nonzero;"/>
        </g>
        <g transform="matrix(1,0,0,1,107.39,239.949)">
            <path d="M0,134.257C1.207,135.842 3.22,138.716 -2.284,135.083C-13.259,127.84 -23.66,118.96 -30.799,107.959C-46.653,83.525 -40.398,66.594 -43.646,40.807C-45.299,27.69 -51.468,13.679 -54.358,0.771C-55.191,-2.949 -55.459,-4.459 -51.716,0.468C-44.002,10.62 -36.389,21.09 -31.907,33.067C-26.95,46.312 -28.964,57.05 -27.378,70.538C-24.476,95.208 -14.71,114.939 0,134.257" style="fill:rgb(188,32,44);fill-rule:nonzero;"/>
        </g>
        <g transform="matrix(1,0,0,1,172.518,384.67)">
            <path d="M0,62.313C-10.88,59.834 -32.704,53.99 -41.455,47.767C-50.357,41.435 -55.613,26.609 -62.127,17.439C-65.947,12.06 -70.206,6.688 -75.201,2.389C-78.711,-0.632 -76.412,-0.391 -73.77,0.793C-58.536,7.617 -41.679,15.188 -30.545,27.857C-20.507,39.278 -15.055,49.092 -2.538,58.893C2.638,62.945 0.786,62.492 0,62.313" style="fill:rgb(189,31,44);fill-rule:nonzero;"/>
        </g>
        <g transform="matrix(-0.726933,-0.686708,-0.686708,0.726933,362.137,415.256)">
            <path d="M-23.582,-75.424C-24.942,-77.781 -27.142,-55.749 -28.048,-49.845C-29.92,-37.644 -28.632,11.734 -23.582,-3.752C-20.05,-14.582 -5.084,-29.06 -4.64,-34.623C-4.377,-37.905 -21.28,-71.436 -23.582,-75.424" style="fill:rgb(188,32,44);fill-rule:nonzero;"/>
        </g>
        <g transform="matrix(1,0,0,1,71.6514,352.273)">
            <path d="M0,-72.415C0.378,-71.49 3.878,-63.4 5.083,-55.937C6.562,-46.78 4.753,-36.461 6.603,-26.027C8.386,-15.976 10.856,-11.223 13.293,-5.619C15.495,-0.555 19.817,7.346 15.413,3.273C9.961,-1.77 5.248,-9.151 2.588,-16.012C-2.037,-27.938 -0.436,-45.503 -1.541,-62.452C-2.284,-73.846 -3.003,-79.761 0,-72.415" style="fill:rgb(224,117,81);fill-rule:nonzero;"/>
        </g>
        <g transform="matrix(0.660988,-0.750397,-0.750397,-0.660988,155.049,417.888)">
            <path d="M-12.66,-4.216C-10.335,-21.533 -22.277,10.2 -17.888,23.363C-15.422,30.762 -13.323,36.654 -12.66,40.109C-11.656,45.34 -11.168,41.259 -9.789,36.355C-5.697,21.786 -14.505,9.533 -12.66,-4.216" style="fill:rgb(224,117,81);fill-rule:nonzero;"/>
        </g>
        <g transform="matrix(-0.703694,-0.710503,-0.710503,0.703694,383.095,406.566)">
            <path d="M-9.74,-32.45C-11.8,-34.083 -13.064,-10.97 -13.303,-3.975C-13.362,-2.235 -12.01,6.227 -9.74,-0.143C-6.583,-9.002 -2.7,-15.368 -3.271,-18.095C-3.9,-21.114 -6.837,-30.147 -9.74,-32.45" style="fill:rgb(224,117,81);fill-rule:nonzero;"/>
        </g>
        <g transform="matrix(1,0,0,1,131.337,138.143)">
            <path d="M0,12.63C1.311,4.866 1.766,7.004 2.109,11.044C2.375,14.18 2.931,16.007 3.526,19.239C4.682,25.514 5.66,27.686 6.251,22.211C8.68,-0.292 11.329,-12.557 24.483,-31.247C30.332,-39.559 36.192,-44.109 41.447,-47.527C53.439,-55.328 38.714,-45.254 29.446,-26.212C22.545,-12.033 20.165,-0.731 18.674,14.368C17.49,26.35 18.69,53.307 14.397,63.09C12.261,67.958 10.741,64.424 8.86,61.16C1.332,48.099 -3.138,31.208 0,12.63" style="fill:rgb(224,117,81);fill-rule:nonzero;"/>
        </g>
        <g transform="matrix(1,0,0,1,220.407,336.4)">
            <path d="M0,66.029C7.169,72.802 -18.873,55.474 -29.133,51.826C-40.962,47.62 -55.474,48.678 -66.553,42.246C-75.655,36.963 -87.004,21.728 -93.222,12.915C-94.332,11.341 -107.229,-6.773 -100.641,-0.394C-91.998,7.973 -82.729,16.846 -72.45,22.143C-63.121,26.95 -52.634,28.259 -43.129,31.822C-26.362,38.107 -12.803,53.932 0,66.029" style="fill:rgb(224,117,81);fill-rule:nonzero;"/>
        </g>
        <g transform="matrix(1,0,0,1,125.977,217.688)">
            <path d="M0,82.622C1.629,84.369 6.336,89.352 0.859,85.938C-2.971,83.551 -10.171,78.23 -14.031,75.892C-23.03,70.441 -27.554,61.423 -33.148,52.983C-41.059,41.048 -52.398,14.819 -59.719,3.562C-66.413,-6.73 -58.839,-1.386 -52.402,3.682C-42.97,11.109 -35.42,34.627 -28.397,46.231C-19.896,60.277 -11.153,70.664 0,82.622" style="fill:rgb(224,117,81);fill-rule:nonzero;"/>
        </g>
        <g transform="matrix(1,0,0,1,441.209,186.751)">
            <path d="M0,12.474C9.772,-3.762 7.928,-0.398 5.78,6.254C2.917,15.116 -0.054,22.295 -1.691,25.267C-7.856,36.459 -14.122,42.399 -27.702,41.238C-32.206,40.853 -35.283,40.261 -31.715,37.242C-25.197,31.726 -19.093,24.282 -15.399,20.387C-7.574,12.136 -2.625,-13.749 -2.198,-21.746C-1.761,-29.925 -1.046,-24.379 -0.936,-11.003C-0.865,-2.456 -5.243,21.185 0,12.474" style="fill:rgb(224,116,81);fill-rule:nonzero;"/>
        </g>
        <g transform="matrix(0.649957,0.759971,0.759971,-0.649957,281.877,434.184)">
            <path d="M28.206,-9.816C26.021,-19.662 27.774,13.08 27.645,37.4C27.51,63.158 23.496,71.084 28.206,63.738C33.34,55.73 43.583,39.288 42.438,32.963C41.057,25.34 29.991,-1.773 28.206,-9.816" style="fill:rgb(224,117,81);fill-rule:nonzero;"/>
        </g>
        <g transform="matrix(1,0,0,1,232.661,428.787)">
            <path d="M0,45.007C3.787,48.892 -5.835,43.796 -10.954,40.218C-16.001,36.691 -30.128,28.559 -34.186,24.239C-38.257,19.906 -50.871,-1.464 -49.651,-2.786C-48.638,-3.885 -25.59,8.955 -23.625,11.678C-17.478,20.199 -8.532,36.255 0,45.007" style="fill:rgb(224,117,81);fill-rule:nonzero;"/>
        </g>
        <g transform="matrix(1,0,0,1,113.953,148.208)">
            <path d="M0,57.639C-0.047,59.818 -0.693,65.941 -1.271,57.106C-1.554,52.77 -2.322,49.328 -2.592,47.115C-2.934,44.308 -3.5,37.812 -3.748,35.432C-3.904,33.931 -4.45,30.478 -6.06,36.175C-6.369,37.27 -8.041,42.409 -8.702,47.248C-8.87,48.482 -9.775,51.381 -10.064,48.904C-10.829,42.345 -12.444,35.078 -11.729,28.4C-11.22,23.639 -6.394,14.514 -2.702,6.767C0.781,-0.543 2.445,-3.48 5.398,-7.538C5.954,-8.302 6.064,-7.886 6.026,-7.278C4.605,15.533 0.587,30.698 0,57.639" style="fill:rgb(224,117,81);fill-rule:nonzero;"/>
        </g>
        <g transform="matrix(1,0,0,1,103,240.625)">
            <path d="M0,-24.666C0,-24.666 0.344,-30.672 0.098,-32.696C-0.28,-35.792 0.221,-37.485 1.377,-35.4C3.247,-32.028 5.767,-25.663 7.377,-21.425C11.776,-9.848 12.648,-7.911 7.364,3.235C4.105,10.108 4.096,14.566 3.483,13.804C2.375,12.428 1.328,8.098 -1.279,-1.788C-1.959,-4.369 -2.258,-14.582 -3.295,-15.893C-3.772,-16.496 -5.909,-11.187 -6.988,-12.627C-8.459,-14.592 -10.497,-32.359 -12.011,-37.114C-12.437,-38.45 -11.744,-39.232 -9.585,-35.54C-7.053,-31.211 -4.582,-28.25 -1.609,-24.129C0.476,-21.239 0.084,-22.561 0,-24.666" style="fill:rgb(224,116,81);fill-rule:nonzero;"/>
        </g>
        <g transform="matrix(1,0,0,1,426.979,342.881)">
            <path d="M0,12.344C16.307,4.252 22.211,-2.106 18.908,3.468C17.444,5.939 15.574,8.974 9.826,14.794C0.963,23.766 -39.399,17.408 -32.931,16.142C-22.676,14.135 -16.624,10.954 -4.423,4.507C1.846,1.195 6.814,-2.731 9.605,-5.725C14.917,-11.422 13.353,-8.155 8.463,-1.486C4.83,3.468 -6.868,15.752 0,12.344" style="fill:rgb(224,116,81);fill-rule:nonzero;"/>
        </g>
        <g transform="matrix(0.868592,0.495528,0.495528,-0.868592,415.849,247.295)">
            <path d="M19.569,-2.618C27.263,15.554 33.265,25.819 28.682,44.836C27.049,51.616 22.911,66.449 19.569,74.808C15.068,86.062 37.024,44.369 36.88,30.927C36.772,20.802 14.374,-14.889 19.569,-2.618" style="fill:rgb(224,116,80);fill-rule:nonzero;"/>
        </g>
        <g transform="matrix(1,0,0,1,435.834,257.538)">
            <path d="M0,40.298C3.626,39.082 12.239,35.218 15.488,33.284C26.761,26.573 45.237,-3.083 41.127,5.462C38.313,11.31 35.725,15.515 32.581,20.377C30.135,24.161 26.235,31.034 22.671,33.467C13.604,39.654 -9.193,43.381 0,40.298" style="fill:rgb(224,116,80);fill-rule:nonzero;"/>
        </g>
        <g transform="matrix(1,0,0,1,259.675,370.923)">
            <path d="M0,104.265C-0.575,96.727 -7.854,86.926 -8.714,74.616C-10.644,47.006 1.199,46.548 9.361,27.155C12.829,18.916 13.845,8.882 15.821,0.063C16.069,-1.042 17.227,-6.037 17.315,-2.918C17.846,15.984 23.708,37.697 21.24,56.492C19.954,66.282 13.389,69.923 10.122,77.374C6.664,85.261 5.318,92.653 3.212,101.164C1.891,106.504 0.46,110.302 0,104.265" style="fill:rgb(224,117,81);fill-rule:nonzero;"/>
        </g>
        <g transform="matrix(1,0,0,1,307.715,254.511)">
            <path d="M0,160.629C-4.294,139.051 -3.749,135.237 -10.112,120.109C-18.165,100.959 -30.164,97.473 -27.587,67.117C-24.089,25.914 15.429,25.068 45.664,9.369C60.335,1.75 74.62,-12.037 86.798,-21.503C88.453,-22.789 88.548,-22.492 88.312,-18.999C87.413,-5.72 82.847,-1.363 80.311,8.761C78.688,15.239 79.287,16.277 80.768,15.478C84.344,13.546 90.096,8.885 91.335,7.601C109.995,-11.72 112.252,-19.756 111.812,-16.288C109.644,0.785 106.624,5.847 101.188,16.244C96.784,24.666 89.233,28.18 84.773,33.477C74.803,45.319 84.385,41.992 91.962,37.666C101.67,32.124 104.339,29.895 100.276,34.976C94.009,42.813 87.191,49.677 81.853,51.858C76.734,53.95 73.211,52.959 73.266,58.849C73.318,64.381 73.559,73.617 73.326,77.03C72.704,86.125 69.254,107.194 57.689,107.475C41.064,107.879 28.734,67.932 27.255,74.856C25.932,81.053 38.74,117.504 25.884,136.951C0.55,175.271 4.535,183.418 0,160.629" style="fill:rgb(224,117,81);fill-rule:nonzero;"/>
        </g>
        <g transform="matrix(1,0,0,1,141.23,374.942)">
            <path d="M0,-141.444C-0.893,-147.873 6.258,-140.016 6.747,-141.938C8.698,-149.6 16.857,-179.219 16.753,-171.313C16.576,-157.843 18.967,-144.607 26.351,-133.023C37.41,-115.677 59.663,-105.063 71.484,-89.109C73.477,-86.419 77.732,-77.228 79.645,-73.607C80.615,-71.77 81.193,-71.501 81.924,-73.014C85.014,-79.406 88.524,-85.822 92.544,-91.667C96.265,-97.078 103.91,-103.079 106.404,-107.997C107.851,-110.852 109.324,-117.258 108.922,-120.712C108.419,-125.032 113.779,-117.773 114.661,-116.818C124.84,-105.795 114.446,-96.01 112.893,-81.319C110.812,-61.641 120.076,-52.442 124.485,-35.157C127.081,-24.983 128.471,-16.424 127.76,-3.942C127.555,-0.355 122.023,-13.8 121.486,-10.744C120.483,-5.031 119.884,1.372 118.875,5.568C118.171,8.497 113.601,1.111 113.436,3.973C113.214,7.824 112.831,11.425 112.493,13.282C108.438,35.577 104.566,37.775 90.955,19.373C86.37,13.175 79.113,-1.956 74.286,-5.958C66.295,-12.584 47.668,-16.949 37.467,-23.139C10.57,-39.46 -5.975,-76.562 -6.159,-107.368C-6.164,-108.182 -6.302,-115.73 -4.243,-110.934C0.564,-99.733 0.977,-101.384 0.812,-106.999C0.663,-112.07 1.376,-131.539 0,-141.444" style="fill:rgb(224,117,81);fill-rule:nonzero;"/>
        </g>
        <g transform="matrix(1,0,0,1,258,432.006)">
            <path d="M0,3.994C0.169,3.827 1.993,4.58 3.075,3.37C4.483,1.794 5.616,-5.711 6.011,-6.003C7.283,-6.94 9.493,-3.604 9.988,-4.008C10.752,-4.632 12.582,-12.914 13.011,-18C13.413,-22.77 16.038,1.492 16.038,1.492C17.522,6.057 10.933,3.064 9.995,3.989C9.653,4.326 10.042,10.158 9.99,10.989C9.794,14.129 8.123,7.163 7.012,7.996C6.022,8.739 -1.441,29.047 0,21.994C1.161,16.314 -1.675,5.875 0,3.994" style="fill:rgb(234,178,60);fill-rule:nonzero;"/>
        </g>
        <g transform="matrix(1,0,0,1,329,365.006)">
            <path d="M0,32.994C-3.459,37.174 -12.135,40.311 -13.99,44.994C-16.422,51.135 -17.081,11.699 -16.99,7.999C-16.917,5.051 -11.365,25.429 -11.011,22.988C-10.465,19.223 -6.442,-15.362 -5.989,-12C-4.162,1.578 -3.261,23.715 -1.989,20.988C-0.287,17.339 4.096,8.569 3.99,9.999C3.245,20.052 4.273,22.984 3,27.994C2.742,29.008 0.831,31.99 0,32.994" style="fill:rgb(234,179,59);fill-rule:nonzero;"/>
        </g>
        <g transform="matrix(1,0,0,1,290,265.774)">
            <path d="M0,52.726C2.218,30.837 11.418,28.039 29.327,20.053C50.729,10.509 81.208,-0.664 89.31,-7.964C97.413,-15.264 98.969,-16.5 97.95,-12.334C97.13,-8.983 94.747,-2.257 92.83,0.556C90.008,4.695 84.769,7.127 81.476,11.202C77.09,16.631 78.061,15.975 85.379,15.103C94.037,14.072 99.271,10.589 99.009,11.735C98.279,14.927 91.374,29.558 85.022,34.748C81.162,37.902 64.714,44.301 64.002,45.238C62.87,46.73 69.495,49.6 74.594,50.15C77.131,50.424 84.599,48.892 84.995,49.231C86.148,50.221 82.354,53.487 81.352,54.078C71.253,60.026 52.402,56.741 41.331,54.398C39.276,53.963 37.776,52.167 35.616,52.234C32.322,52.336 19.564,58.913 19.01,58.226C17.551,56.418 23.752,49.592 26.98,44.725C30.209,39.858 21.071,41.402 12.491,49.217C3.911,57.032 0.575,67.142 0,69.226C-1.755,75.584 -0.531,57.962 0,52.726" style="fill:rgb(234,179,59);fill-rule:nonzero;"/>
        </g>
        <g transform="matrix(1,0,0,1,147,338.46)">
            <path d="M0,-87.96C0.392,-90.186 1.725,-91.49 1.987,-90.452C3.475,-84.571 5.288,-69.317 9.983,-66.938C11.196,-66.324 11.75,-66.197 12.53,-67.43C13.94,-69.657 10.086,-97.549 9.22,-102.2C8.824,-104.33 8.539,-109.617 11.953,-97.912C14.958,-87.61 18.534,-81.787 26.527,-74.487C33.892,-67.76 54.366,-54.954 57.846,-46.806C58.46,-45.368 60.369,-36.84 59.996,-36.466C59.023,-35.493 50.729,-43.001 52.015,-38.98C52.761,-36.645 60.87,-21.283 59.995,-20.465C58.847,-19.393 53.073,-23.564 52.005,-22.456C51.606,-22.042 51.82,-12.526 51.997,-10.957C52.875,-3.155 59.462,2.355 61.015,10.026C59.3,11.576 53.099,8.444 52.002,9.539C50.113,11.423 56.312,21.657 50.699,20.348C43.459,18.659 29.18,9.615 23.474,4.566C20.098,1.578 3.413,-18.251 6.01,-21.46C6.809,-22.447 19.714,-9.991 28.383,-4.583C29.08,-4.148 29.577,-4.489 26.988,-7.943C10.741,-29.622 3.802,-40.252 -3.989,-50.976C-6.86,-54.929 -2.608,-51.915 -0.915,-50.553C1.131,-48.906 7.059,-44.73 7.782,-45.434C8.774,-46.398 1.418,-63.467 0.874,-67.961C0.266,-72.989 -0.853,-83.12 0,-87.96" style="fill:rgb(234,179,59);fill-rule:nonzero;"/>
        </g>
        <g transform="matrix(1,0,0,1,232.535,346.641)">
            <path d="M0,-2.78C-1.342,1.352 10.897,-18.25 10.115,-14.175C7.167,1.193 8.652,16.698 8.009,20.793C7.223,25.803 11.825,13.072 13.128,10.514C14.683,7.462 19.552,-5.895 19.455,-1.636C19.109,13.55 19.088,23.594 17.33,35.724C16.777,39.546 15.877,48.168 12.261,51C8.571,53.89 6.54,46.39 4.913,43.981C1.479,38.9 -4.584,34.1 -7.731,29.055C-20.56,8.483 -9.349,-22.984 -9.522,-32.634C-9.699,-42.539 -4.968,-23.23 -4.968,-23.23C-4.968,-23.23 12.909,-60.106 12.206,-56.67C8.239,-37.294 2.191,-9.524 0,-2.78Z" style="fill:rgb(234,179,59);fill-rule:nonzero;"/>
        </g>
    </g>
</svg>
