<?xml version="1.0" encoding="UTF-8"?><svg id="a" xmlns="http://www.w3.org/2000/svg" xmlns:xlink="http://www.w3.org/1999/xlink" viewBox="0 0 256 256"><defs><style>.e{fill:#0f5900;}.f{fill:url(#c);}.g{fill:url(#d);}.h{fill:#42c82f;}.i{fill:#6acdfe;}.j{fill:#0076a5;}.k{stroke:#42c82f;}.k,.l{fill:none;stroke-miterlimit:10;stroke-width:14px;}.l{stroke:#0f5900;}.m{fill:url(#b);}</style><linearGradient id="b" x1="123.85" y1="-11.6" x2="101.98" y2="86.65" gradientUnits="userSpaceOnUse"><stop offset="0" stop-color="#fff" stop-opacity=".7"/><stop offset="1" stop-color="#fff" stop-opacity="0"/></linearGradient><linearGradient id="c" x1="123.85" y1="76.72" x2="101.98" y2="174.97" xlink:href="#b"/><linearGradient id="d" x1="123.85" y1="165.05" x2="101.98" y2="263.29" xlink:href="#b"/></defs><polyline class="l" points="88.39 42.3 39.46 42.3 39.46 130.62 62.34 130.62"/><polygon class="e" points="57.24 148.07 87.46 130.63 57.24 113.17 57.24 148.07"/><polyline class="l" points="166.46 42.3 225.49 42.3 225.49 218.94 202.57 218.94"/><polygon class="e" points="207.68 201.49 177.46 218.94 207.68 236.4 207.68 201.49"/><polyline class="k" points="83.94 39.68 35 39.68 35 128 57.88 128"/><polygon class="h" points="52.78 145.45 83 128 52.78 110.55 52.78 145.45"/><polyline class="k" points="162 39.68 221.03 39.68 221.03 216.32 198.12 216.32"/><polygon class="h" points="203.22 198.87 173 216.32 203.22 233.77 203.22 198.87"/><rect class="i" x="83" y="4.68" width="90" height="70"/><rect class="i" x="83" y="93" width="90" height="70"/><rect class="i" x="83" y="181.32" width="90" height="70"/><path class="m" d="M114.02,74.68h-31.02V4.68h74.45c-25.27,19.13-39.96,50.34-43.43,70Z"/><path class="f" d="M114.02,163h-31.02v-70h74.45c-25.27,19.13-39.96,50.34-43.43,70Z"/><path class="g" d="M114.02,251.32h-31.02v-70h74.45c-25.27,19.13-39.96,50.34-43.43,70Z"/><path class="j" d="M168,9.68v60h-80V9.68h80M173,4.68h-90v70h90V4.68h0Z"/><path class="j" d="M168,98v60h-80v-60h80M173,93h-90v70h90v-70h0Z"/><path class="j" d="M168,186.32v60h-80v-60h80M173,181.32h-90v70h90v-70h0Z"/></svg>