<?xml version="1.0" encoding="UTF-8"?><svg id="a" xmlns="http://www.w3.org/2000/svg" xmlns:xlink="http://www.w3.org/1999/xlink" viewBox="0 0 256 256"><defs><style>.e{fill:#0f5900;}.f{fill:#d6504e;}.g{fill:url(#c);}.h{fill:url(#d);}.i{fill:#e23a00;}.j{fill:#42c82f;}.k{fill:#e58157;}.l{stroke:#42c82f;}.l,.m{fill:none;stroke-miterlimit:10;stroke-width:14px;}.m{stroke:#0f5900;}.n{fill:#d30000;}.o{fill:url(#b);}</style><linearGradient id="b" x1="123.85" y1="-.28" x2="101.98" y2="97.97" gradientUnits="userSpaceOnUse"><stop offset="0" stop-color="#fff" stop-opacity=".7"/><stop offset="1" stop-color="#fff" stop-opacity="0"/></linearGradient><linearGradient id="c" x1="53.17" y1="153.72" x2="31.3" y2="251.97" xlink:href="#b"/><linearGradient id="d" x1="191.89" y1="153.72" x2="170.02" y2="251.97" xlink:href="#b"/></defs><polyline class="m" points="142.07 152.98 60.07 152.98 60.07 190.76"/><polyline class="m" points="130.75 123.72 130.75 152.98 198.62 152.98 198.62 174.5"/><polygon class="e" points="107.72 130.46 130.75 90.57 153.79 130.46 107.72 130.46"/><polyline class="l" points="139.32 148.41 57.32 148.41 57.32 186.19"/><polyline class="l" points="128 119.15 128 148.41 195.87 148.41 195.87 169.93"/><polygon class="j" points="104.97 125.89 128 86 151.03 125.89 104.97 125.89"/><rect class="k" x="83" y="16" width="90" height="70"/><rect class="f" x="12.32" y="170" width="90" height="70"/><rect class="f" x="151.04" y="170" width="90" height="70"/><path class="o" d="M114.02,86h-31.02V16h74.45c-25.27,19.13-39.96,50.34-43.43,70Z"/><path class="g" d="M43.34,240H12.32v-70h74.45c-25.27,19.13-39.96,50.34-43.43,70Z"/><path class="h" d="M182.06,240h-31.02v-70h74.45c-25.27,19.13-39.96,50.34-43.43,70Z"/><path class="i" d="M168,21v60h-80V21h80M173,16h-90v70h90V16h0Z"/><path class="n" d="M97.32,175v60H17.32v-60h80M102.32,170H12.32v70h90v-70h0Z"/><path class="n" d="M236.04,175v60h-80v-60h80M241.04,170h-90v70h90v-70h0Z"/></svg>