<?xml version="1.0" encoding="UTF-8" standalone="no"?>
<!DOCTYPE svg PUBLIC "-//W3C//DTD SVG 1.1//EN" "http://www.w3.org/Graphics/SVG/1.1/DTD/svg11.dtd">
<svg width="100%" height="100%" viewBox="0 0 698 696" version="1.1" xmlns="http://www.w3.org/2000/svg" xmlns:xlink="http://www.w3.org/1999/xlink" xml:space="preserve" xmlns:serif="http://www.serif.com/" style="fill-rule:evenodd;clip-rule:evenodd;stroke-linejoin:round;stroke-miterlimit:2;">
    <g id="vippie" transform="matrix(2,0,0,2,0,0)">
        <g transform="matrix(1,0,0,1,314,141.443)">
            <path d="M0,81.557C-1.057,79.071 -1.184,81.293 -1,82.557C1.741,101.341 -6.096,134.299 -24.327,143.73C-57.082,160.673 -76.004,111.72 -101,101.057C-135.447,86.362 -157.75,113.302 -185.643,126.414C-195.724,131.152 -205.732,135.483 -214,125.057C-221.1,116.106 -219.346,107.824 -217.709,97.348C-212.794,65.897 -202.983,53.761 -209.701,19.255C-210.705,14.1 -209.701,15.65 -208,18.557C-205.322,23.134 -203.409,28.352 -200.059,32.626C-199.742,33.03 -199.088,32.848 -199.056,32.335C-198.781,28.044 -199.529,21.509 -199.696,17.766C-199.877,13.704 -201.245,7.834 -200.488,4.426C-200.124,2.788 -192.906,-5.183 -191.199,-8.142C-186.205,-16.808 -183.652,-25.866 -183.781,-35.927C-183.804,-37.778 -183.842,-41.361 -183.395,-44.376C-183.211,-45.618 -178.609,-56.027 -177.988,-56.441C-177.01,-57.092 -176.122,-54.615 -173.563,-54.037C-172.789,-53.862 -171.271,-57.752 -171.54,-58.041C-172.961,-59.572 -184.379,-65.287 -185.349,-64.606C-186.826,-63.569 -187.84,-61.577 -187.228,-60.993C-185.886,-59.713 -183.099,-58.805 -183.099,-57.814C-183.099,-57.161 -185.04,-48.796 -186.005,-50.933C-187.129,-53.421 -193.391,-63.858 -193.799,-66.119C-194.153,-68.083 -190.168,-71.748 -189.107,-74.05C-178.759,-96.509 -203.384,-110.772 -223.245,-108.181C-226.282,-107.785 -232.902,-104.534 -234.338,-104.66C-236.113,-104.816 -239.801,-107.698 -242.736,-108.204C-262.186,-111.557 -283.611,-92.003 -284.903,-72.792C-285.086,-70.068 -283.834,-66.418 -284.156,-65.143C-284.297,-64.585 -289.197,-57.73 -290.169,-56.114C-291.021,-54.698 -294.848,-45.542 -295.013,-50.936C-295.17,-56.085 -294.84,-57.073 -293.711,-57.982C-290.876,-60.266 -289.946,-60.597 -290.058,-61.839C-290.595,-67.784 -294.145,-63.821 -299.683,-60.349C-305.448,-56.735 -309.729,-55.34 -304.375,-52.512C-303.208,-51.895 -300.647,-56.854 -300.014,-52.67C-299.844,-51.546 -297.484,-46.163 -297.236,-44.707C-295.047,-31.849 -299.776,-16.705 -290.961,-4.721C-290.54,-4.149 -290.353,-3.439 -290.481,-2.74C-291.366,2.074 -294.865,21.239 -294.955,23.913C-295.101,28.213 -288.271,18.359 -286.13,15.311C-284.731,13.319 -281.706,9.597 -285.008,16.541C-288.713,24.334 -292.294,31.681 -292.212,39.845C-292.184,42.591 -297.515,44.414 -298.391,48.297C-299.489,53.169 -299.492,63.264 -295.431,67.44C-295.035,67.848 -294.349,67.527 -294.38,66.959C-294.613,62.733 -292.276,52.794 -290.012,54.559C-287.987,56.137 -288.112,69.722 -286.988,70.555C-285.337,71.779 -283.153,61.539 -283.008,60.048C-281.946,49.188 -287.491,38.906 -282.592,29.692C-278.667,22.309 -271.956,16.99 -269.723,15.249C-269.31,14.927 -268.78,14.81 -268.273,14.944C-265.151,15.771 -258.719,18.348 -254.849,19.233C-252.503,19.77 -251.355,29.635 -251.326,32.169C-251.027,58.89 -272.47,85.762 -274.048,115.009C-275.748,146.519 -261.974,167.055 -236.005,183.062C-231.623,185.762 -240.327,184.976 -244.775,185.396C-250.522,185.94 -255.703,186.938 -247.253,188.565C-239.709,190.017 -221.55,192.337 -208.835,192.337C-192.733,192.337 -179.465,191.542 -171.868,190.464C-160.471,188.847 -171.224,187.166 -174.692,186.959C-176.459,186.854 -179.224,186.935 -182.609,185.665C-187.572,183.803 -180.297,183.325 -178.447,182.609C-160.546,175.678 -145.201,156.127 -127.439,151.618C-105.35,146.011 -86.522,172.574 -68.878,182.686C-67.359,183.557 -68.247,184.329 -68.845,184.485C-68.845,184.485 -78.977,186.316 -82.758,187.292C-85.603,188.026 -82.589,188.82 -80.937,188.985C-63.384,190.741 -43.794,193.114 -26.221,192.246C-21.203,191.999 -17.001,190.725 -13.607,189.604C-11.45,188.892 -13.072,187.754 -14.226,187.416C-19.718,185.806 -26.03,185.714 -31.636,184.405C-32.184,184.277 -32.334,183.583 -31.884,183.246C-3.105,161.683 14.342,115.295 0,81.557" style="fill-rule:nonzero;"/>
        </g>
        <g transform="matrix(1,0,0,1,337.212,236.644)">
            <path d="M0,-27.931C-0.005,-29.299 -2.514,-25.179 -3.364,-23.869C-4.494,-22.139 -5.402,-20.764 -6.212,-18.644C-7.602,-15.004 -7.906,-13.657 -8.381,-10.412C-8.489,-9.674 -8.541,-5.799 -8.649,-3.909C-8.72,-2.659 -8.963,-0.764 -7.902,0.228C-6.685,1.368 -8.116,-0.641 -5.611,-14.254C-4.549,-20.027 -2.817,-21.581 -2.212,-22.644C-0.061,-26.427 0.017,-23.362 0,-27.931" style="fill-rule:nonzero;"/>
        </g>
        <g transform="matrix(1,0,0,1,293.174,227.604)">
            <path d="M0,-4.278C2.71,0.85 4.222,7.534 5.579,13.306C5.702,13.826 6.389,13.969 6.699,13.535C9.341,9.839 5.865,0.941 4.547,-2.825C3.693,-5.266 -0.605,-15.185 -1.895,-16.867C-2.953,-18.247 -7.644,-14.669 -6.706,-13.507C-5.197,-11.638 -1.512,-7.14 0,-4.278" style="fill-rule:nonzero;"/>
        </g>
        <g transform="matrix(0.669897,0.742454,0.742454,-0.669897,45.6415,24.1085)">
            <path d="M7.493,-3.712C7.109,1.568 8.748,11.726 9.922,17.115C10.338,19.022 8.246,18.463 7.493,17.196C4.804,12.671 3.042,-3.661 5.079,-5.414C5.559,-5.827 7.609,-5.307 7.493,-3.712" style="fill-rule:nonzero;"/>
        </g>
        <g transform="matrix(0.863835,-0.503775,-0.503775,-0.863835,104.817,27.5632)">
            <path d="M-2.938,-1.034C-2.515,-1.828 -1.399,-5.241 -0.352,-4.926C2.078,-4.192 -2.352,7.828 -2.938,9.375C-5.014,14.87 -8.452,14.693 -8.127,13.483C-7.124,9.761 -2.938,-1.034 -2.938,-1.034" style="fill-rule:nonzero;"/>
        </g>
        <g transform="matrix(1,0,0,1,90.1018,41.6037)">
            <path d="M0,33.431C-0.701,33.244 -0.898,32.34 -0.353,31.861C5.515,26.699 12.68,21.128 6.9,12.896C0.825,4.243 -6.861,10.915 -7.742,10.309C-8.478,9.803 -8.298,0.508 -7.62,-0.622C-6.569,-2.376 4.933,-4.676 7.399,-4.678C16.247,-4.685 30.318,1.134 31.836,10.96C35.108,32.145 17.539,38.116 0,33.431" style="fill:white;fill-rule:nonzero;"/>
        </g>
        <g transform="matrix(1,0,0,1,76.9587,65.7602)">
            <path d="M0,-16.407C-2.206,-18.081 -10.775,-20.866 -14.766,-17.343C-19.612,-13.065 -21.702,-4.462 -16.798,1.579C-14.523,4.381 -10.529,5.921 -13.596,8.102C-19.577,12.355 -28.81,14.317 -36.015,12.796C-50.279,9.785 -40.26,-9.348 -33.984,-16.286C-29.31,-21.454 -15.682,-30.724 -8.721,-29.566C-7.874,-29.425 -3.671,-28.66 -0.956,-26.439C0.922,-24.902 1.063,-15.6 0,-16.407" style="fill:white;fill-rule:nonzero;"/>
        </g>
        <g transform="matrix(1,0,0,1,40.7868,200.875)">
            <path d="M0,-45.947C0.626,-45.398 0.638,-44.426 0.016,-43.873C-1.723,-42.328 -4.764,-39.489 -5.307,-38.895C-7.177,-36.875 -9.607,-33.385 -10.787,-30.875C-16.359,-18.968 -10.044,-8.398 -12.315,1.882C-12.678,3.525 -13.058,3.987 -13.347,2.005C-13.914,-1.883 -13.765,-3.326 -15.151,-5.788C-15.764,-6.875 -16.827,-7.796 -17.746,-8.19C-19.498,-8.94 -20.201,-6.646 -20.801,-5.506C-21.111,-4.906 -22.38,-0.975 -22.76,-1.958C-23.122,-2.896 -22.294,-6.794 -22.058,-8.109C-20.961,-14.208 -17.193,-15.069 -16.984,-17.813C-16.163,-28.549 -15.013,-33.616 -8.112,-44.086C-4.601,-49.428 -4.543,-49.934 0,-45.947" style="fill:rgb(248,124,124);fill-rule:nonzero;"/>
        </g>
        <g>
            <g transform="matrix(1,0,0,1,116.004,285.025)">
                <path d="M0,-6.223C0.774,-9.189 2.834,-7.067 1.935,-1.586C-0.399,12.664 -14.726,10.12 -24.043,3.791C-31.639,-1.369 -28.447,-14.595 -23.312,-17.87C-21.718,-18.887 -18.096,-16.998 -19.625,-15.613C-24.614,-11.091 -25.225,-3.732 -21.593,0.667C-17.067,6.15 -6.737,7.539 -2.492,0.612C-1.71,-0.664 -0.33,-4.957 0,-6.223" style="fill:rgb(2,124,2);fill-rule:nonzero;"/>
            </g>
            <g transform="matrix(1,0,0,1,102.215,202.146)">
                <path d="M0,-23.135C-1.159,-23.164 -3.22,-23.61 -4.789,-22.557C-8.725,-19.915 -11.244,-16.963 -11.917,-12.924C-12.578,-8.961 -11.382,-1.775 -1.556,-2.105C-0.691,-2.134 -1.472,3.287 -3.234,3.837C-3.999,4.077 -7.873,3.923 -10.391,2.643C-13.471,1.078 -16.922,-2.892 -16.715,-8.63C-16.479,-15.192 -13.046,-26.08 -1.404,-27.047C0.583,-27.212 1.79,-23.09 0,-23.135" style="fill:rgb(2,124,2);fill-rule:nonzero;"/>
            </g>
            <g transform="matrix(1,0,0,1,90.8349,223.533)">
                <path d="M0,22.615C0.547,22.645 0.468,26.656 -0.209,26.628C-1.796,26.562 -6.126,26.243 -8.906,23.931C-11.747,21.568 -13.901,15.632 -13.392,9.976C-12.883,4.321 -9.162,0.719 -6.415,-1.053C-3.984,-2.622 0.072,-4.041 5.564,-3.29C6.179,-3.205 5.487,1.324 4.904,1.348C2.261,1.458 -2.614,-0.393 -6.223,5.174C-9.443,10.142 -8.905,14.486 -7.833,16.747C-6.814,18.894 -4.145,22.389 0,22.615" style="fill:rgb(2,124,2);fill-rule:nonzero;"/>
            </g>
            <g transform="matrix(1,0,0,1,203.057,247.732)">
                <path d="M0,14.819C-5.51,17.624 -15.956,13.449 -19.309,7.679C-21.084,4.624 -21.208,0.075 -21.033,-0.657C-20.62,-2.387 -18.145,-2.805 -18.102,-1.936C-18.081,-1.524 -18.194,2.312 -16.46,4.747C-12.959,9.666 -8.652,11.878 -2.135,10.651C3.59,9.574 4.707,2.16 6.096,0.406C6.475,-0.073 8.876,1.04 8.874,1.644C8.872,2.749 8.269,10.61 0,14.819" style="fill:rgb(2,124,2);fill-rule:nonzero;"/>
            </g>
            <g transform="matrix(1,0,0,1,165.32,268.253)">
                <path d="M0,-3.423C-0.898,0.967 -7.273,7.962 -10.393,9.472C-15.603,12.012 -31.101,12.262 -31.397,2.574C-31.425,1.663 -27.963,0.392 -27.743,0.809C-21.083,13.459 -3.71,7.337 -3.24,-5.853C-3.17,-7.953 -5.431,-12.621 -5.866,-14.026C-6.134,-14.893 -2.875,-16.882 -2.377,-16.524C1.091,-14.026 0.679,-6.74 0,-3.423" style="fill:rgb(2,124,2);fill-rule:nonzero;"/>
            </g>
            <g transform="matrix(1,0,0,1,231.347,288.223)">
                <path d="M0,-26.131C1.277,-25.647 1.222,-25.204 0.843,-24.92C-0.588,-23.847 -2.212,-22.031 -3.175,-20.187C-4.138,-18.343 -5.48,-15.063 -2.489,-10.554C-0.777,-7.972 5.923,-3.306 10.364,-5.51C13.11,-6.872 14.198,-8.35 14.741,-8.937C15.03,-9.277 17.352,-7.01 17.137,-6.535C13.999,0.401 1.718,-2.105 -2.453,-5.352C-8.604,-10.141 -8.259,-23.434 -4.878,-25.266C-3.029,-26.269 -1.058,-26.532 0,-26.131" style="fill:rgb(2,124,2);fill-rule:nonzero;"/>
            </g>
            <g transform="matrix(1,0,0,1,281.663,296.737)">
                <path d="M0,5.346C4.651,0.502 2.56,-3.764 3.221,-5.085C3.474,-5.59 6.833,-7.046 7.324,-6.745C8.525,-6.009 8.349,-0.764 7.581,1.007C2.644,12.392 -15.358,12.11 -19.362,2.387C-20.37,-0.059 -19.633,-3.358 -18.848,-5.154C-18.544,-5.85 -15.731,-4.645 -15.628,-4.081C-15.564,-3.732 -16.358,-2.379 -16.225,-0.606C-16.101,1.046 -15.337,3.13 -13.294,5.009C-11.167,6.963 -5.392,10.962 0,5.346" style="fill:rgb(2,124,2);fill-rule:nonzero;"/>
            </g>
        </g>
        <g>
            <g transform="matrix(1,0,0,1,160.146,270.277)">
                <path d="M0,-8.216C-0.44,3.274 -14.202,7.183 -21.146,-1.277C-22.577,-3.02 -20.35,-4.455 -19.734,-4.789C-18.743,-5.326 -15.234,-6.317 -11.147,-8.753C-6.82,-11.331 -4.17,-15.399 -2.284,-14.257C-0.178,-12.981 0.09,-8.966 0,-8.216" style="fill:rgb(140,255,26);fill-rule:nonzero;"/>
            </g>
            <g transform="matrix(0.386423,-0.922322,-0.922322,-0.386423,104.452,271.664)">
                <path d="M-2.832,-10.92C-5.99,-13.317 -19.39,-9.218 -15.319,0.723C-12.815,6.839 -5.975,8.443 -2.832,7.03C-1.474,6.419 -3.254,5.152 -3.736,-1.496C-4.206,-7.973 -1.811,-10.145 -2.832,-10.92" style="fill:rgb(140,255,26);fill-rule:nonzero;"/>
            </g>
            <g transform="matrix(-0.40153,-0.915846,-0.915846,0.40153,189.291,243.182)">
                <path d="M-10.502,-14.767C-11.245,-15.492 -14.062,-11.831 -14.84,-10.645C-17.953,-5.903 -15.468,0.856 -10.502,3.294C-8.014,4.516 -2.075,4.592 -1.274,3.147C-0.745,2.194 -4.935,-9.334 -10.502,-14.767" style="fill:rgb(140,255,26);fill-rule:nonzero;"/>
            </g>
            <g transform="matrix(1,0,0,1,245,267.881)">
                <path d="M0,10.771C-0.886,12.399 -4.685,13.677 -7.525,12.844C-11.93,11.553 -16.057,7.147 -15.7,3.541C-15.342,-0.064 -13.491,-2.583 -12.585,-2.741C-11.635,-2.906 -9.397,0.246 -6.101,3.844C-2.893,7.347 0.76,9.374 0,10.771" style="fill:rgb(140,255,26);fill-rule:nonzero;"/>
            </g>
            <g transform="matrix(0.988818,-0.14913,-0.14913,-0.988818,102.22,197.72)">
                <path d="M-1.317,-0.386C-1.844,-1.499 -8.592,1.211 -8.692,6.822C-8.757,10.467 -5.187,15.546 -1.317,17.149C0.197,17.777 2.864,17.553 3.295,17.093C3.734,16.628 2.401,7.462 -1.317,-0.386" style="fill:rgb(140,255,26);fill-rule:nonzero;"/>
            </g>
            <g transform="matrix(1,0,0,1,268.072,301.583)">
                <path d="M0,-8.9C0.495,-9.602 1.97,-8.46 7.674,-8.583C13.378,-8.707 15.083,-10.195 15.138,-8.79C15.385,-2.46 12.566,0.034 9.45,0.634C6.024,1.295 0.801,0.081 -0.334,-1.884C-1.407,-3.742 -0.96,-7.541 0,-8.9" style="fill:rgb(140,255,26);fill-rule:nonzero;"/>
            </g>
            <g transform="matrix(1,0,0,1,94.8234,243.215)">
                <path d="M0,-15.981C0.673,-15.814 -0.605,-14.027 -1.734,-7.807C-2.862,-1.587 -2.361,0.881 -3.138,0.808C-4.849,0.647 -8.085,-0.413 -9.743,-2.825C-12.165,-6.348 -10.927,-11.872 -7.404,-14.522C-6.008,-15.572 -3.55,-16.862 0,-15.981" style="fill:rgb(140,255,26);fill-rule:nonzero;"/>
            </g>
        </g>
        <g transform="matrix(1,0,0,1,83.15,57.5955)">
            <path d="M0,8.257C-2.23,6.853 -1.864,-1.782 5.113,-0.442C14.594,1.379 6.07,12.078 0,8.257M2.551,-4.02C-1.646,-2.039 -6.243,7.705 -4.047,10.784C-0.382,15.925 8.342,12.703 11.265,8.322C15.702,1.672 10.277,-7.668 2.551,-4.02" style="fill:rgb(61,246,245);fill-rule:nonzero;"/>
        </g>
        <g transform="matrix(1,0,0,1,77.8041,65.4855)">
            <path d="M0,-11.456C0.345,-10.985 -0.456,-8.68 -1.392,-8.112C-2.548,-7.41 -2.455,-11.027 -5.712,-11.59C-10.416,-12.405 -13.285,-7.914 -12.075,-3.926C-11.332,-1.476 -4.85,3.065 -9.298,3.491C-10.361,3.592 -14.968,-0.969 -15.594,-2.332C-17.695,-6.905 -15.456,-14.879 -9.03,-14.841C-8.302,-14.837 -2.631,-15.048 0,-11.456" style="fill:rgb(61,246,245);fill-rule:nonzero;"/>
        </g>
        <g transform="matrix(0.765435,0.643513,0.643513,-0.765435,24.0248,149.423)">
            <path d="M2.247,-1.657C1.566,-0.317 -2.559,4.383 -1.972,5.43C-1.199,6.808 1.183,7.049 2.247,6.75C6.027,5.687 4.665,0.002 4.699,-2.22C4.742,-5.031 3.9,-4.906 2.247,-1.657" style="fill:rgb(226,226,226);fill-rule:nonzero;"/>
        </g>
        <g transform="matrix(-0.793779,0.608206,0.608206,0.793779,105.391,155.158)">
            <path d="M-0.217,3.719C-0.656,-0.26 -0.473,-4.511 -6.111,-1.96C-7.064,-1.528 -5.866,1.812 -0.217,9.021C-0.005,9.292 0.434,9.121 0.4,8.778C0.196,6.721 -0.135,4.337 -0.217,3.719" style="fill:rgb(226,226,226);fill-rule:nonzero;"/>
        </g>
        <g transform="matrix(1,0,0,1,106.69,152.492)">
            <path d="M0,-66.533C-0.743,-66.038 -7.992,-66.273 -9.392,-66.533C-11.802,-66.983 -14.491,-67.777 -16.761,-68.577C-17.991,-69.007 -22.878,-71.168 -21.571,-71.59C-20.869,-71.817 -17.165,-70.005 -15.255,-69.485C-13.515,-69.015 -9.552,-67.808 -8.532,-67.648C-6.922,-67.388 -4.149,-67.587 -2.044,-67.473C-0.539,-67.391 1.596,-67.597 0,-66.533M-9.702,-61.579C-10.863,-61.845 -20.692,-65.955 -18.248,-67.421C-17.518,-67.858 -15.365,-65.437 -11.766,-64.139C-8.307,-62.89 -4.252,-62.405 -2.56,-61.539C-0.824,-60.651 -8.553,-61.315 -9.702,-61.579M-24.323,-19.449C-27.055,-19.942 -31.009,-21.541 -30.703,-23.226C-30.323,-25.317 -26.091,-20.229 -23.278,-21.464C-19.892,-22.95 -18.461,-31.868 -17.7,-28.492C-16.473,-23.045 -18.709,-18.437 -24.323,-19.449M-28.996,-33.308C-24.586,-34.675 -19.41,-31.723 -21.608,-26.937C-25.706,-18.016 -38.194,-30.456 -28.996,-33.308M-22.69,-36.482C-19.611,-36.423 -17.319,-32.329 -18.7,-32.492C-19.173,-32.548 -23.704,-36.502 -22.69,-36.482M-46.69,-21.492C-54.77,-19.302 -62.18,-23.682 -60.51,-32.732C-60.29,-33.942 -57.25,-40.112 -55.69,-38.492C-55.09,-37.852 -63.829,-26.299 -54.69,-23.492C-52.301,-22.758 -38.25,-23.782 -46.69,-21.492M-61.591,-61.462C-61.004,-61.908 -57.001,-62.404 -55.975,-62.515C-54.352,-62.682 -50.62,-64.469 -51.681,-62.804C-53.023,-60.698 -62.789,-60.554 -61.591,-61.462M-65.945,-65.363C-67.244,-65.459 -71.374,-66.515 -70.222,-67.262C-69.603,-67.664 -65.365,-66.36 -63.385,-66.354C-61.583,-66.352 -57.063,-66.306 -56.037,-66.416C-54.414,-66.583 -52.195,-67.012 -50.132,-67.448C-48.657,-67.76 -46.65,-68.513 -47.915,-67.071C-48.504,-66.4 -52.264,-65.62 -53.683,-65.508C-56.128,-65.316 -63.545,-65.18 -65.945,-65.363M-49.347,-25.708C-55.505,-25.14 -55.988,-35.758 -50.03,-36.27C-43.984,-36.79 -42.96,-26.298 -49.347,-25.708M16.35,-64.032C15.805,-65.702 12.075,-75.485 10.752,-75.487C9.481,-75.489 4.8,-72.407 2.513,-71.789C-7.053,-69.203 -14.947,-70.219 -23.381,-75.297C-25.105,-76.335 -30.637,-81.559 -31.174,-81.56C-32.371,-81.561 -38.89,-75.564 -40.996,-74.297C-44.568,-72.149 -50.63,-69.331 -54.69,-68.492C-63.022,-66.77 -67.817,-68.208 -68.69,-68.492C-71.098,-69.222 -72.493,-70.305 -74.437,-71.073C-75.099,-71.334 -75.909,-70.988 -76.294,-70.39C-80.051,-64.548 -84.84,-58.954 -87.028,-44.711C-87.544,-41.352 -86.249,-30.998 -85.415,-27.267C-78.151,5.237 -25.105,15.028 -1.212,-4.513C18.182,-20.374 24.259,-39.804 16.35,-64.032" style="fill:rgb(0,216,0);fill-rule:nonzero;"/>
        </g>
        <g transform="matrix(1,0,0,1,312.307,217.326)">
            <path d="M0,46.882C-1.706,52.662 -3.198,56.653 -5.202,62.24C-6.962,67.145 -12.272,76.467 -14.78,80.57C-18.991,87.46 -28.294,97.372 -34.927,100.634C-46.863,106.505 -54.743,106.579 -63.991,100.139C-67.087,97.982 -83.141,84.126 -86.119,81.809C-95.15,74.783 -100.404,69.919 -111.688,66.341C-123.337,62.647 -129.5,64.566 -140.339,71.35C-155.642,80.928 -165.946,90.549 -178.321,96.671C-188.78,101.845 -197.385,102.284 -202.211,102.176C-212.009,101.955 -220.614,99.599 -229.624,95.79C-240.303,91.277 -247.569,83.35 -252.963,75.203C-264.67,57.523 -262.958,40.018 -261.495,28.965C-259.647,15 -251.383,-1.273 -247.073,-16.283C-245.213,-22.743 -243.047,-31.276 -242.437,-37.956C-242.237,-40.146 -242.777,-50.656 -242.397,-54.636C-242.357,-55.026 -242.027,-55.316 -241.637,-55.306C-238.737,-55.226 -227.287,-54.976 -223.097,-55.846C-218.997,-56.686 -213.682,-59.697 -213.317,-59.326C-212.254,-58.243 -208.388,-44.306 -209.307,-44.326C-212.748,-44.4 -218.471,-43.514 -221.846,-40.735C-226.759,-36.689 -230.103,-32.436 -229.69,-23.312C-229.472,-18.496 -224.447,-12.868 -220.938,-10.886C-217.908,-9.106 -213.578,-9.638 -213.307,-9.326C-212.886,-8.841 -214.645,1.139 -215.139,1.401C-215.954,1.835 -222.365,-1.832 -228.305,2.268C-233.815,6.068 -237.664,12.515 -237.305,19.443C-237.058,24.232 -234.085,30.177 -231.195,32.654C-227.161,36.111 -221.568,34.33 -221.307,34.674C-220.905,35.203 -221.566,36.668 -220.41,40.412C-219.115,44.602 -217.795,44.705 -217.685,45.558C-217.576,46.399 -228.567,51.674 -228.237,59.014C-227.777,69.394 -219.576,77.726 -209.456,78.806C-203.516,79.446 -198.474,78.641 -195.653,74.65C-191.133,68.256 -192.873,60.916 -192.02,58.742C-191.792,58.161 -181.427,53.664 -180.797,53.694C-179.597,53.764 -179.861,57.166 -177.694,59.974C-173.66,65.199 -160.387,64.704 -154.957,61.524C-147.607,57.224 -142.514,48.571 -144.274,40.061C-144.774,37.641 -148.41,33.512 -148.287,33.174C-147.715,31.597 -133.43,28.047 -132.317,28.674C-131.552,29.105 -134.793,38.327 -127.267,44.134C-120.976,48.988 -106.523,49.606 -101.827,42.654C-98.222,37.315 -98.527,32.754 -97.817,32.694C-97.017,32.634 -84.301,39.62 -84.429,41.045C-84.5,41.834 -88.599,44.246 -89.71,49.047C-92.628,61.652 -83.527,73.662 -69.577,72.042C-64.387,71.442 -62.272,66.795 -61.403,66.552C-60.583,66.322 -50.514,72.404 -50.497,73.064C-50.482,73.656 -52.507,74.563 -52.617,77.921C-53.081,92.074 -31.126,97.282 -21.736,84.582C-16.606,77.642 -21.384,71.359 -20.656,70.731C-19.705,69.909 -11.229,63.341 -9.028,60.313C-6.531,56.88 -2.549,50.417 -1.046,45.671C1.046,39.065 0.847,44.013 0,46.882" style="fill:rgb(0,216,0);fill-rule:nonzero;"/>
        </g>
        <g transform="matrix(1,0,0,1,247.485,177.297)">
            <path d="M0,141.59C-6.11,136.925 -13.645,129.433 -18.827,125.581C-47.498,104.269 -57.901,97.168 -85.335,120.673C-89.797,124.496 -101.598,133.29 -107.808,136.48C-125.074,145.35 -147.147,145.435 -160.583,140.292C-174.139,135.104 -187.336,123.035 -194.12,108.042C-205.234,83.482 -197.34,63.288 -193.362,49.072C-192.129,44.665 -186.848,32.412 -185.45,27.688C-184.122,23.199 -181.307,17.302 -180.18,7.184C-179.093,-2.565 -179.702,-12.032 -179.85,-14.428C-179.877,-14.875 -181.982,-15.876 -181.872,-14.795C-181.49,-11.051 -180.22,-4.185 -180.881,3.356C-181.777,13.59 -184.556,19.257 -186.495,24.246C-196.321,49.526 -211.872,81.315 -197.67,109.801C-180.872,145.792 -141.593,157.466 -106.816,138.872C-92.309,131.116 -90.199,127.021 -81.585,120.957C-47.382,94.962 -31.928,121.049 -4.748,140.31C-0.491,143.326 8.828,150.659 18.282,148.636C30.027,146.123 35.119,141.604 43.342,133.815C51.617,125.975 56.696,114.859 59.202,107.902C60.585,104.062 60.778,102.281 57.75,109.498C54.482,117.287 50.979,124.966 41.367,134.241C30.519,144.709 28.609,145.168 18.502,147.755C9.255,150.122 4.049,144.682 0,141.59" style="fill:rgb(255,255,0);fill-rule:nonzero;"/>
        </g>
    </g>
</svg>
