<svg xmlns="http://www.w3.org/2000/svg" viewBox="0 0 256 256"><defs><style>.e{fill:#fff}.f{fill:#0b0}.h{fill:#007f00}</style></defs><g id="a" style="opacity:.9"><path d="M42.5 101.6s-2.7 1.7-5.8 4.3c-6.1 5-14.3 13.3-10 19.6 1.5 2.4 8.7 9 4.5 14.5-2.8-5.9-8.5-10-10.2-11a1 1 0 0 0-1-.2c-4.8 2-10.4 8.7-11.3 12.4-2.7-6.3 2.6-13.5 5.7-16.7 4.9-5 5.3-9.5 10.4-17 1.2-1.7 2.5-3.5 3.8-5 3-3.7 5.7-6.5 5.7-6.5l8.2 5.6Z" style="fill:#d00"/><path d="M42.5 101.6s-2.7 1.7-5.8 4.3c-3.2-.9-5.9-2-8.1-3.4 3-3.8 5.7-6.5 5.7-6.5l8.2 5.6Z" style="fill:#9b0000"/><path d="M241.3 142.4c-7-16.5-16.5-34.5-28.2-36.4-16.5-2.6-30 4-28 10.8 4.8 17 21.4-4.9 32.6 32.8 6.2 20.7 11.8 31.5 5.4 42-4.4 7.2-16-2.8-22.2-11.4-.3-.4-.4-.9-.4-1.4 2.2-35.6-23.9-46.8-32.6-82.8-7.1-29-16.8-41.4-24.5-47.5.2-1.2.2-2.4.2-3.6-.3-16.9-10-27.4-26.6-27.4-4.6 0-9 1.1-12.7 3.1l-.8.4A25 25 0 0 0 77 1C62 1.7 50.7 9 49.5 23.3c-29.4 9.6-39.3 26.3-40 38-.9 17.1 11.3 46.6 46.7 43.3 7.7-.7 14.6-.3 22.3-.9 4.7-.3 3.7 6.5 14.3 7.3 6.4.5 18.4 5.3 24.2 7 27.2 8-1.3 8.2-9.4 33.2-.2.5-.6 1-1.2 1.1A92.9 92.9 0 0 0 80 163.3c-17.3 11-38.3 40-30.4 65 7.5 23.4 26 26.5 58 26.6 30.4.1 35.8-3.5 57.4-12.7a53.2 53.2 0 0 0 26.5-21.8c.4-.6 1.2-.8 1.8-.5 21.1 8.6 45.7 7 51.6-11 6-18 2.5-51.6-3.6-66.5ZM104.7 218c-15.9-.3-8.4-15.6 5.4-19 .6-.1 1.3.1 1.6.7 5.6 8.8 2 18.4-7 18.3Z"/><path d="m238.2 208.3-.5 1.3c-5.2 11.8-27.3 8.2-39.2 5.2a.2.2 0 0 1-.1-.2l1.4-6c1.2-5 2.4-10.6 2.3-16.4 0-.2.2-.3.3-.1 7.7 9.5 19.7 9.7 24.5 5.2 9-8.5 6.5-24.4-1.7-44.3-8.6-21-11.3-29-27.1-31.9-15.5-2.7-5.6-11.6 12-8.7 13.1 2.1 21.9 18.4 28.8 44.6a96.7 96.7 0 0 1-.7 51.3Z" class="f"/><path d="m238.2 208.3-.5 1.3c-5.2 11.8-27.3 8.2-39.2 5.2a.2.2 0 0 1-.1-.2l1.4-6c7.4 3.6 26.4 9.9 33.5.7 8.1-10.6 8.6-32.3 8.6-32.3.5 10.5-.6 21.3-3.7 31.3Z" class="h"/><path d="M188.4 210.2a40 40 0 0 1-.8 2.1c-4.6 10.2-13 15.7-25 22a132.2 132.2 0 0 1-53.8 13.8c-17.6.1-44.5 1-51.5-22.7l-.3-1.2c-5.3-20.5 7.8-42.7 25-54.3 4.2-2.8 17.4-9.2 22.5-10.6.3 0 .5.2.5.5a72 72 0 0 0 1.9 26.2l.8 4.4c0 .1 0 .3-.2.4-18.9 8.9-26.6 23.6-14.3 30.7 2 1.2 4.7 2.2 8 2.9 22.2 4.7 25.6-21 20-35.6l-4.2-36.9c9.7-21.4 35.3-32.2 10.2-39.2-15.4-4.2-38.9-6.3-38-10.4.9-4.2 10.2-15.3 4-12.4-6.1 2.8-6 5.6-14.7 6.3l-3.6.2c-6.2.3-13.6.3-19 .2-29.7-.3-40.3-25.2-38-37.2a44 44 0 0 1 1.3-4.9C22.4 44.4 29.9 36 49 29.4c.3-.1.6 0 .7.4 1.7 13.4 12.7 25.8 27.2 25.8 4.7 0 9.2-1.2 13-3.3.3-.2.7 0 .7.2a25.8 25.8 0 0 0 26.4 19A27 27 0 0 0 141.4 56c.1-.3.5-.3.8 0 6.2 6.4 13.8 18 19.8 42.4 8.5 35.3 31 43.5 32.4 72.9v1.8c.3 12.6-1 24-6 37.1Z" class="f"/><path d="M188.4 210.2a40 40 0 0 1-.8 2.1c-4.6 10.2-13 15.7-25 22a132.2 132.2 0 0 1-53.8 13.8c-17.6.1-44.5 1-51.5-22.7l-.3-1.2c4 4.1 17.3 22.3 60 17.6 27.5-3 45.6-7.5 60.6-25.1 13.4-15.8 16.2-39.9 16.7-45.4l.1 1.8c.2 12.6-1 24-6 37.1Z" class="h"/><path d="M93.2 221.5c-14-6.6-10-20.1-3.2-25.7 5-4.1 12.5-7.8 16.8-9.8l.9 4.4c0 .1 0 .3-.2.4-18.9 8.9-26.6 23.6-14.3 30.7ZM74.9 96.4c-6.2.3-13.6.3-19 .2-29.7-.3-40.3-25.2-38-37.2a44 44 0 0 1 1.3-4.9C18.8 66.3 23.4 83 40 90.2a114 114 0 0 0 34.8 6.2Z" class="h"/><path d="M152.7 170.1c-.3 39-33.2 47.8-33.2 47.8l.1-.2c.6-1.2 4.3-10.3-2.6-21.8a61.2 61.2 0 0 1-6.2-36.3c.7-9.9 10.6-20.5 17.5-26.7a92 92 0 0 1 6.5-5.5s18.1 18 18 42.7Z" style="fill:#ff0"/><path d="M116.7 179.7c-.4 0-.7.3-.6.7 1.5 5.4 3.6 9.2 6 12.8l1 1.6c0 .3.3.5.6.4l1.2-.2c6.1-.8 11-3 16.4-5.9.2 0 .3.2.2.3a48.4 48.4 0 0 1-16.9 9.2c-.3 0-.5.4-.4.7 1 7.9-4 17.2-4.6 18.5.6-1.3 4.3-10.4-2.6-22a61.2 61.2 0 0 1-6.2-36.2c.7-9.9 10.6-20.5 17.5-26.7A54 54 0 0 0 115 158c-.1.4.2.8.6.7l2.7-.4c6.7-.8 12.9-2.6 19.2-4.9.2 0 .3.2.2.3-4 2.4-8.3 4.4-12.7 5.9a31 31 0 0 1-10 2.2c-.4 0-.7.3-.7.6-.4 4.4-.2 9 .6 13.4 0 .3.3.5.6.5 2.7 0 5.5-.5 8.2-.9a80 80 0 0 0 20.7-6.7c.2-.1.3.1.2.2-5 3.3-10.3 6-16 8-3.7 1.5-9 2.9-12 2.7Z" style="fill:#ccc600"/><path d="M117 23.9c-13.3.3-21 9.4-21 21 0 12.9 9.4 21 21 21 12.3 0 21-9.4 21-21s-8.5-21-21-21ZM112.7 49c-4.6 0-8.4-1.1-8.4-4.7s3.8-4.6 8.4-4.6 8.5 1.1 8.5 4.7c0 4-3.8 4.6-8.5 4.6ZM77 6.7C65 7 55 17.4 55.8 28.2c1 11.2 11.2 22.4 21 21 4.7-.7 9.1-2.5 12.7-5 .2-7.4 3.3-14 8.1-18.8A21.2 21.2 0 0 0 77 6.7Zm-4.5 26.4c-5 0-8.7-1-8.2-4.4.4-3 3.8-4.5 8.5-4.5s8.4.9 8.4 4.5c0 3.8-4 4.5-8.7 4.4Z" class="e"/></g></svg>